<svg width="64" height="64" viewBox="0 0 64 64" fill="none" xmlns="http://www.w3.org/2000/svg">
<path d="M26.944 52H37.056C38.68 52 40 50.652 40 49C40 47.348 38.68 46 37.056 46H26.944C25.32 46 24 47.348 24 49C24 50.652 25.32 52 26.944 52ZM21 20C18.6131 20 16.3239 20.9482 14.636 22.636C12.9482 24.3239 12 26.6131 12 29C12 31.3869 12.9482 33.6761 14.636 35.364C16.3239 37.0518 18.6131 38 21 38H43C45.3869 38 47.6761 37.0518 49.364 35.364C51.0518 33.6761 52 31.3869 52 29C52 26.6131 51.0518 24.3239 49.364 22.636C47.6761 20.9482 45.3869 20 43 20H21ZM22.5 24C23.88 24 25 25.12 25 26.5V31.5C25 32.163 24.7366 32.7989 24.2678 33.2678C23.7989 33.7366 23.163 34 22.5 34C21.837 34 21.2011 33.7366 20.7322 33.2678C20.2634 32.7989 20 32.163 20 31.5V26.5C20 25.12 21.12 24 22.5 24ZM39 26.5C39 25.837 39.2634 25.2011 39.7322 24.7322C40.2011 24.2634 40.837 24 41.5 24C42.163 24 42.7989 24.2634 43.2678 24.7322C43.7366 25.2011 44 25.837 44 26.5V31.5C44 32.163 43.7366 32.7989 43.2678 33.2678C42.7989 33.7366 42.163 34 41.5 34C40.837 34 40.2011 33.7366 39.7322 33.2678C39.2634 32.7989 39 32.163 39 31.5V26.5Z" fill="black"/>
<path d="M57 3.50146C57.8527 3.50146 58.6777 3.80446 59.3281 4.35596C59.9785 4.90745 60.4123 5.67192 60.5518 6.51318C60.6911 7.35438 60.5275 8.21795 60.0898 8.94971C59.715 9.57644 59.1586 10.0695 58.5 10.3716V24.1235C59.7028 24.9317 60.5 26.3062 60.5 27.8599V41.8804C60.4998 43.4338 59.7026 44.8076 58.5 45.6157V48.1196C58.4992 50.0095 58.1256 51.8809 57.4014 53.6265C56.6772 55.372 55.6165 56.9581 54.2793 58.2935C52.942 59.6289 51.3541 60.6879 49.6074 61.4097C47.9702 62.0861 46.2231 62.4538 44.4541 62.4956L44.0996 62.4995H19.9004C18.0089 62.5009 16.1354 62.1299 14.3877 61.4067C12.6401 60.6836 11.0522 59.6229 9.71484 58.2856C8.37738 56.9482 7.31695 55.3596 6.59375 53.6118C5.87055 51.8641 5.49864 49.9906 5.5 48.0991V45.7378C4.29748 44.93 3.5 43.5573 3.5 42.0034V27.9946C3.50164 27.2064 3.71071 26.4327 4.10547 25.7505C4.45119 25.1531 4.9282 24.6432 5.5 24.2612V10.1606C4.86864 9.86088 4.33787 9.37957 3.98145 8.77197C3.56376 8.05986 3.41118 7.22335 3.55078 6.40967C3.69039 5.59594 4.11292 4.85785 4.74414 4.32568C5.37539 3.79352 6.17437 3.50147 7 3.50146C7.82563 3.50146 8.62461 3.79352 9.25586 4.32568C9.88708 4.85785 10.3096 5.59594 10.4492 6.40967C10.5888 7.22335 10.4362 8.05986 10.0186 8.77197C9.66212 9.37958 9.13137 9.86088 8.5 10.1606V15.2104C11.1613 11.7408 15.3476 9.49965 20.0596 9.49951H21.5352C21.4884 9.17552 21.486 8.84553 21.5312 8.51904C21.6083 7.96428 21.8181 7.43525 22.1416 6.97803C22.465 6.52103 22.8933 6.14831 23.3906 5.89111C23.888 5.63388 24.44 5.49926 25 5.49951H39C39.9282 5.49951 40.8183 5.86865 41.4746 6.5249C42.1309 7.18119 42.4999 8.07139 42.5 8.99951V9.00146C42.4994 9.17032 42.4849 9.33636 42.4619 9.49951H43.96C46.4721 9.5006 48.9418 10.1528 51.127 11.3921C52.8314 12.3587 54.3161 13.6583 55.5 15.2056V10.3716C54.8414 10.0695 54.285 9.57643 53.9102 8.94971C53.4725 8.21795 53.3089 7.35438 53.4482 6.51318C53.5877 5.67192 54.0215 4.90745 54.6719 4.35596C55.3223 3.80446 56.1473 3.50147 57 3.50146ZM20.0596 14.4995C17.5243 14.4996 15.0926 15.5075 13.2998 17.3003C11.5071 19.0931 10.5 21.5247 10.5 24.0601V48.1001L10.5107 48.563C10.5628 49.6397 10.8 50.7005 11.2129 51.6987C11.6848 52.8396 12.377 53.8765 13.25 54.7495C14.123 55.6225 15.1599 56.3147 16.3008 56.7866C17.4417 57.2585 18.6647 57.5007 19.8994 57.4995H44.1006C45.3338 57.5013 46.5554 57.2601 47.6953 56.7896C48.8352 56.319 49.8712 55.6285 50.7441 54.7573C51.617 53.8862 52.3094 52.8513 52.7822 51.7124C53.255 50.5735 53.4992 49.3528 53.5 48.1196V24.0601C53.5 21.5281 52.4955 19.0994 50.707 17.3071C48.9183 15.5148 46.4912 14.5045 43.959 14.4995H20.0596Z" fill="black" stroke="#C5B8B8"/>
</svg>
