<svg width="64" height="64" viewBox="0 0 64 64" fill="none" xmlns="http://www.w3.org/2000/svg">
<path d="M49 0H15C6.71573 0 0 6.71573 0 15V49C0 57.2843 6.71573 64 15 64H49C57.2843 64 64 57.2843 64 49V15C64 6.71573 57.2843 0 49 0Z" fill="#242938"/>
<path fill-rule="evenodd" clip-rule="evenodd" d="M50.9548 17.2087L35.1698 7.83869C34.2489 7.28978 33.1967 7 32.1246 7C31.0525 7 30.0004 7.28978 29.0795 7.83869L13.2945 17.2087C11.4105 18.3274 10.25 20.3937 10.25 22.6304V41.3707C10.25 43.6069 11.4108 45.6744 13.295 46.7929L29.08 56.1612C30.0009 56.7098 31.0528 56.9996 32.1247 56.9997C33.1966 56.9995 34.2485 56.7098 35.1693 56.1612L50.9543 46.7929C52.8383 45.6744 53.9997 43.6069 53.9997 41.3707V22.6307C53.9997 20.3937 52.8383 18.3272 50.9548 17.2087Z" fill="#242938"/>
<path fill-rule="evenodd" clip-rule="evenodd" d="M29.6318 55.202L13.8468 45.8335C12.3028 44.917 11.3435 43.207 11.3435 41.3705V22.6308C11.3435 20.7943 12.3027 19.0842 13.846 18.1682L29.6318 8.79825C30.386 8.34967 31.2472 8.11245 32.1247 8.1115C32.9985 8.1115 33.8605 8.349 34.618 8.79825L50.403 18.1682C51.704 18.9405 52.5815 20.2778 52.8283 21.7775C52.3048 20.6603 51.124 20.3565 49.7482 21.16L34.8148 30.3843C32.9528 31.4728 31.5798 32.6942 31.5785 34.9395V53.3405C31.5775 54.685 32.1205 55.5558 32.9545 55.8083C32.6805 55.8558 32.4042 55.8887 32.1247 55.8887C31.2472 55.8878 30.386 55.6506 29.6318 55.202ZM50.9548 17.2085L35.1698 7.839C34.2489 7.29012 33.1968 7.00024 32.1247 7C31.0526 7.0002 30.0005 7.29008 29.0795 7.839L13.2945 17.2085C11.4105 18.327 10.25 20.394 10.25 22.631V41.3705C10.25 43.6067 11.4108 45.6743 13.295 46.7928L29.08 56.1615C30.0011 56.7097 31.0529 56.9994 32.1247 57C33.1965 56.9994 34.2483 56.7098 35.1693 56.1615L50.9548 46.7928C52.8388 45.6743 53.9997 43.6067 53.9997 41.3705V22.6308C53.9997 20.394 52.8388 18.327 50.9548 17.2085Z" fill="white"/>
<path fill-rule="evenodd" clip-rule="evenodd" d="M46.8168 43.1823L42.8863 45.5348C42.7821 45.5955 42.7056 45.6638 42.7048 45.789V46.8175C42.7048 46.9433 42.7893 46.9955 42.8933 46.9343L46.8848 44.5085C46.9888 44.4478 47.0048 44.3315 47.0056 44.2063V43.299C47.0056 43.174 46.9211 43.1215 46.8168 43.1823Z" fill="#47B353"/>
<path fill-rule="evenodd" clip-rule="evenodd" d="M38.4469 34.5246C38.5741 34.4601 38.6789 34.5393 38.6806 34.7058L38.6939 36.0656C39.2631 35.8391 39.7576 35.7786 40.2056 35.8821C40.3029 35.9081 40.3459 36.0403 40.3061 36.1973L40.0069 37.4023C39.9836 37.4933 39.9324 37.5853 39.8706 37.6426C39.8475 37.666 39.821 37.6857 39.7919 37.7011C39.756 37.7212 39.7143 37.728 39.6739 37.7203C39.4694 37.6741 38.9831 37.5678 38.2181 37.9553C37.4156 38.3616 37.1349 39.0588 37.1404 39.5763C37.1471 40.1943 37.4641 40.3816 38.5586 40.4003C40.0171 40.4246 40.6474 41.0618 40.6626 42.5308C40.6776 43.9733 39.9076 45.5223 38.7296 46.4716L38.7556 47.8176C38.7571 47.9796 38.6519 48.1653 38.5246 48.2298L37.7274 48.6891C37.5996 48.7536 37.4949 48.6741 37.4931 48.5121L37.4794 47.1881C36.7966 47.4718 36.1046 47.5403 35.6626 47.3628C35.5794 47.3303 35.5436 47.2073 35.5766 47.0673L35.8656 45.8503C35.8886 45.7543 35.9394 45.6583 36.0084 45.5973C36.0329 45.5737 36.0578 45.5554 36.0831 45.5426C36.1289 45.5196 36.1736 45.5146 36.2116 45.5288C36.6879 45.6893 37.2971 45.6143 37.8829 45.3178C38.6271 44.9413 39.1249 44.1823 39.1171 43.4283C39.1099 42.7441 38.7396 42.4598 37.8389 42.4531C36.6924 42.4563 35.6236 42.2303 35.6059 40.5426C35.5916 39.1531 36.3141 37.7071 37.4579 36.7928L37.4436 35.4341C37.4419 35.2671 37.5439 35.0833 37.6751 35.0173L38.4469 34.5246Z" fill="#242938"/>
</svg>
