<svg width="64" height="42" viewBox="0 0 64 42" fill="none" xmlns="http://www.w3.org/2000/svg">
<path d="M18.7658 18.8013C18.7889 18.8013 18.8119 18.8059 18.8332 18.8149C18.8546 18.8238 18.874 18.8369 18.8903 18.8533L24.7799 24.7486C24.8037 24.773 24.8198 24.8039 24.8263 24.8374C24.8327 24.8709 24.8293 24.9056 24.8163 24.9371C24.8034 24.9687 24.7815 24.9957 24.7533 25.015C24.7252 25.0343 24.692 25.0449 24.6579 25.0456H23.1525C23.1056 25.0455 23.0605 25.0637 23.0268 25.0964C22.9931 25.1291 22.9736 25.1737 22.9722 25.2206V38.4743C22.9742 39.3132 23.3076 40.1174 23.8997 40.7116L24.7796 41.5916C24.8033 41.616 24.8194 41.6469 24.8258 41.6803C24.8322 41.7137 24.8288 41.7483 24.8159 41.7798C24.803 41.8113 24.7811 41.8383 24.7531 41.8576C24.725 41.8769 24.6919 41.8876 24.6579 41.8883H17.7133C15.9567 41.8883 14.5328 40.4643 14.5328 38.7076V25.2206C14.5328 25.1976 14.5283 25.1748 14.5195 25.1536C14.5107 25.1324 14.4978 25.1131 14.4815 25.0968C14.4653 25.0806 14.446 25.0677 14.4248 25.0589C14.4035 25.0501 14.3808 25.0456 14.3578 25.0456H12.8734C12.8388 25.0459 12.805 25.0361 12.776 25.0172C12.7471 24.9983 12.7244 24.9713 12.7107 24.9395C12.6971 24.9077 12.6932 24.8727 12.6995 24.8387C12.7058 24.8047 12.7221 24.7734 12.7461 24.7486L18.641 18.8536C18.6573 18.837 18.6767 18.8238 18.6981 18.8148C18.7195 18.8058 18.7425 18.8011 18.7658 18.8011M31.7907 22.2151C31.8139 22.2151 31.8368 22.2197 31.8582 22.2287C31.8795 22.2377 31.8989 22.2508 31.9152 22.2673L37.8101 28.1413C37.8341 28.1661 37.8504 28.1975 37.8567 28.2314C37.863 28.2654 37.8591 28.3005 37.8455 28.3323C37.8318 28.364 37.8091 28.3911 37.7802 28.4099C37.7513 28.4288 37.7174 28.4387 37.6828 28.4383H36.1774C36.1305 28.4396 36.086 28.4592 36.0534 28.4928C36.0207 28.5264 36.0024 28.5714 36.0024 28.6183V38.4741C36.0031 39.3123 36.3346 40.1163 36.9249 40.7113L37.8101 41.5913C37.8341 41.6161 37.8502 41.6474 37.8565 41.6814C37.8627 41.7153 37.8588 41.7503 37.8452 41.7821C37.8316 41.8138 37.8089 41.8408 37.78 41.8596C37.7511 41.8785 37.7173 41.8884 37.6828 41.8881H30.7543C28.9976 41.8881 27.5735 40.4641 27.5735 38.7073V28.6291C27.5735 28.5822 27.5553 28.537 27.5226 28.5034C27.4899 28.4697 27.4454 28.4501 27.3985 28.4488H25.8986C25.8645 28.4482 25.8313 28.4375 25.8031 28.4183C25.775 28.399 25.7531 28.3719 25.7401 28.3404C25.7272 28.3088 25.7237 28.2741 25.7302 28.2407C25.7367 28.2072 25.7528 28.1763 25.7766 28.1518L31.6662 22.2673C31.6825 22.2508 31.7018 22.2377 31.7232 22.2287C31.7446 22.2197 31.7675 22.2151 31.7907 22.2151ZM44.8184 25.5926C44.8641 25.5926 44.9084 25.6113 44.9401 25.6443L50.835 31.5343C50.8606 31.5585 50.8783 31.5898 50.8858 31.6241C50.8933 31.6585 50.8903 31.6943 50.8772 31.727C50.864 31.7596 50.8414 31.7875 50.8121 31.8071C50.7829 31.8266 50.7484 31.8369 50.7132 31.8366H49.2023C49.1559 31.8366 49.1114 31.855 49.0786 31.8878C49.0458 31.9207 49.0273 31.9652 49.0273 32.0116V38.4741C49.0294 39.313 49.3628 40.1172 49.955 40.7113L50.835 41.5913C50.8587 41.6158 50.8747 41.6466 50.8812 41.68C50.8876 41.7135 50.8841 41.7481 50.8712 41.7796C50.8583 41.8111 50.8365 41.8381 50.8084 41.8574C50.7803 41.8766 50.7473 41.8873 50.7132 41.8881H43.7634C42.0068 41.8881 40.5826 40.4641 40.5826 38.7073V32.0113C40.5826 31.9649 40.5642 31.9204 40.5314 31.8876C40.4986 31.8548 40.4541 31.8363 40.4076 31.8363H38.9235C38.8883 31.8367 38.8539 31.8264 38.8247 31.8069C38.7955 31.7873 38.7728 31.7595 38.7596 31.7269C38.7465 31.6943 38.7434 31.6585 38.7509 31.6242C38.7584 31.5898 38.776 31.5585 38.8015 31.5343L44.6961 25.6443C44.712 25.6279 44.731 25.6149 44.752 25.606C44.773 25.5971 44.7956 25.5926 44.8184 25.5926ZM31.6714 0.000334015C40.9309 0.067834 49.0978 6.08108 51.9112 14.9038C58.7882 15.8013 63.9479 21.6358 63.9979 28.5708C63.9979 34.2946 60.4184 39.0511 54.639 41.0313L54.424 41.1036L54.159 41.1883V36.9153C57.8325 35.3673 59.9901 32.3083 59.9901 28.5708C59.9714 23.2966 55.7949 18.9901 50.5457 18.7893L50.3685 18.7843H48.7784L48.3966 17.2678C46.5233 9.53533 39.6272 4.07033 31.6714 4.01408C28.4667 3.99876 25.3226 4.88734 22.5998 6.57787C19.8771 8.2684 17.6862 10.6924 16.2784 13.5716L15.6885 14.7868L14.575 14.9036C9.54735 15.4413 5.41886 19.1191 4.30568 24.0518C3.20825 28.9141 5.28012 33.9336 9.46686 36.6096L9.65035 36.7246V41.2308H9.62385L9.22637 41.0506C2.93777 38.1598 -0.745495 31.5208 0.12945 24.6548C1.00489 17.7891 6.23606 12.2863 13.0486 11.0653C16.7289 4.21358 23.8942 -0.043416 31.6714 0.000334015Z" fill="#3448C5"/>
</svg>
