<svg width="46" height="64" viewBox="0 0 46 64" fill="none" xmlns="http://www.w3.org/2000/svg">
<path d="M22.6673 63.8382L4.19733 58.7107L0.0812988 12.5457H45.3086L41.1883 58.7037L22.6673 63.8382Z" fill="#264DE4"/>
<path d="M37.661 55.7645L41.1818 16.3203H22.6951V59.9135L37.661 55.7645Z" fill="#2965F1"/>
<path d="M9.5173 33.4423L10.0247 39.1043H22.6951V33.4423H9.5173ZM8.49756 21.9824L9.01222 27.6444H22.6951V21.9824H8.49756ZM22.6951 48.1471L22.6703 48.1536L16.3646 46.451L15.9614 41.9354H10.2777L11.0709 50.8255L22.669 54.045L22.6951 54.0379V48.1471Z" fill="#EBEBEB"/>
<path d="M10.7253 0H17.5827V2.86777H13.5931V5.73553H17.5831V8.60312H10.7253V0ZM18.9544 0H25.812V2.4937H21.8222V2.9924H25.812V8.72793H18.9546V6.10925H22.9444V5.61055H18.9542L18.9544 0ZM27.1836 0H34.0412V2.4937H30.0514V2.9924H34.0412V8.72793H27.1836V6.10925H31.1734V5.61055H27.1838L27.1836 0Z" fill="black"/>
<path d="M35.8366 33.4423L36.8586 21.9824H22.6755V27.6444H30.6537L30.1385 33.4423H22.6755V39.1043H29.6476L28.9902 46.4474L22.6753 48.1519V54.0423L34.2827 50.8255L34.3678 49.8689L35.6985 34.9627L35.8366 33.4423Z" fill="white"/>
</svg>
