<svg width="64" height="64" viewBox="0 0 64 64" fill="none" xmlns="http://www.w3.org/2000/svg">
<path fill-rule="evenodd" clip-rule="evenodd" d="M30.7599 9.38394C30.9591 8.94657 31.0364 8.46349 30.9836 7.98581C30.9308 7.50812 30.7499 7.05358 30.46 6.67025C30.1701 6.28693 29.782 5.98907 29.3368 5.80817C28.8915 5.62728 28.4057 5.57007 27.9306 5.64261C15.1333 7.60528 5.33325 18.6559 5.33325 31.9999C5.33325 46.7279 17.2719 58.6666 31.9999 58.6666C46.7279 58.6666 58.6666 46.7279 58.6666 31.9999L58.6559 31.2533C58.6426 30.7725 58.4995 30.3043 58.2418 29.8982C57.9841 29.4921 57.6213 29.1633 57.1919 28.9465C56.7626 28.7298 56.2826 28.6332 55.8028 28.667C55.323 28.7008 54.8613 28.8638 54.4666 29.1386C51.5895 31.1423 48.134 32.1455 44.6312 31.9939C41.1285 31.8424 37.7725 30.5446 35.0792 28.3C32.3859 26.0554 30.5044 22.9882 29.7241 19.5702C28.9437 16.1521 29.3076 12.5724 30.7599 9.38128" fill="#551A8B"/>
</svg>
