<svg width="64" height="64" viewBox="0 0 64 64" fill="none" xmlns="http://www.w3.org/2000/svg">
<path d="M19.331 24.335L31.461 17.315C31.6132 17.2387 31.7812 17.199 31.9515 17.199C32.1217 17.199 32.2897 17.2387 32.442 17.315L44.6235 24.335C44.9335 24.49 45.14 24.851 45.14 25.1605V39.2005C45.14 39.562 44.9335 39.8715 44.6235 40.078L32.4935 47.098C32.3412 47.1743 32.1732 47.214 32.003 47.214C31.8327 47.214 31.6647 47.1743 31.5125 47.098L19.331 40.078C19.021 39.923 18.8145 39.562 18.8145 39.2005V25.1605C18.8145 24.8505 19.021 24.4895 19.331 24.335Z" fill="#8080F2"/>
<path d="M63.5674 30.735L49.0624 5.44253C48.5464 4.51353 47.5659 3.84253 46.4819 3.84253H17.4724C16.4404 3.84253 15.4594 4.51353 14.8919 5.44253L0.386943 30.684C0.133308 31.1421 0.000244141 31.6572 0.000244141 32.1808C0.000244141 32.7044 0.133308 33.2194 0.386943 33.6775L14.8919 58.764C15.4079 59.693 16.3884 60.1575 17.4724 60.1575H46.5334C47.5659 60.1575 48.5464 59.693 49.1144 58.8155L63.6194 33.729C64.1354 32.697 64.1354 31.6125 63.5674 30.735ZM51.5399 42.865C51.5399 43.2265 51.3334 43.5875 50.9719 43.7425L32.4929 54.4275C32.3396 54.5283 32.1602 54.582 31.9767 54.582C31.7932 54.582 31.6138 54.5283 31.4604 54.4275L12.9304 43.7945C12.6204 43.588 12.3624 43.2785 12.3624 42.917V21.4955C12.3624 21.1345 12.5689 20.773 12.9304 20.6185L31.4609 9.93353C31.6143 9.83277 31.7937 9.77908 31.9772 9.77908C32.1607 9.77908 32.3401 9.83277 32.4934 9.93353L51.0244 20.6185C51.3339 20.8245 51.5919 21.1345 51.5919 21.4955V42.8655L51.5399 42.865Z" fill="#4B32C3"/>
</svg>
