<svg width="64" height="64" viewBox="0 0 64 64" fill="none" xmlns="http://www.w3.org/2000/svg">
<path d="M49 0H15C6.71573 0 0 6.71573 0 15V49C0 57.2843 6.71573 64 15 64H49C57.2843 64 64 57.2843 64 49V15C64 6.71573 57.2843 0 49 0Z" fill="#049789"/>
<path d="M31.875 10.25C19.9358 10.25 10.25 19.9358 10.25 31.875C10.25 43.8142 19.9358 53.5 31.875 53.5C43.8142 53.5 53.5 43.8142 53.5 31.875C53.5 19.9358 43.8142 10.25 31.875 10.25ZM30.7482 49.2098V35.6452H23.2078L34.0418 14.5402V28.1047H41.3008L30.7482 49.2098Z" fill="white"/>
</svg>
