<svg width="51" height="64" viewBox="0 0 51 64" fill="none" xmlns="http://www.w3.org/2000/svg">
<path d="M15.9404 62.0711C18.6147 63.1472 21.5156 63.786 24.5617 63.8924C28.5403 64.0343 32.4963 63.237 36.1092 61.5649C31.9064 59.9138 28.1004 57.4993 24.8519 54.4971C22.7463 57.8686 19.6318 60.5314 15.9404 62.0711Z" fill="#FF9100"/>
<path d="M24.8513 54.4979C17.4362 47.64 12.938 37.714 13.3182 26.8272C13.3305 26.4735 13.3492 26.1203 13.3711 25.7671C10.0779 24.9132 6.61708 24.9495 3.34253 25.872C1.3631 29.3393 0.168569 33.3177 0.0196997 37.5788C-0.3643 48.5769 6.2911 58.1862 15.94 62.072C19.6313 60.5322 22.7455 57.8722 24.8513 54.4979Z" fill="#FFC400"/>
<path d="M24.8516 54.4977C26.5756 51.7389 27.6209 48.5043 27.7425 45.0195C28.0625 35.8528 21.9002 27.9673 13.3712 25.7668C13.3493 26.12 13.3308 26.4734 13.3185 26.827C12.9383 37.714 17.4365 47.6397 24.8516 54.4977Z" fill="#FF9100"/>
<path d="M26.7887 0C21.9311 3.89168 18.0954 9.02281 15.7747 14.9339C14.415 18.3989 13.6027 22.0544 13.3672 25.7691C21.8963 27.9694 28.0588 35.8551 27.7386 45.0218C27.6169 48.5064 26.5685 51.7378 24.8476 54.5C28.1275 57.5358 31.9453 59.9328 36.1047 61.5678C44.5402 57.6686 50.5252 49.278 50.8718 39.3538C51.0962 32.9238 48.6258 27.193 45.1348 22.3559C41.4483 17.2399 26.7885 0 26.7885 0" fill="#DD2C00"/>
</svg>
