<svg width="64" height="64" viewBox="0 0 64 64" fill="none" xmlns="http://www.w3.org/2000/svg">
<path d="M49 0H15C6.71573 0 0 6.71573 0 15V49C0 57.2843 6.71573 64 15 64H49C57.2843 64 64 57.2843 64 49V15C64 6.71573 57.2843 0 49 0Z" fill="#F03C2E"/>
<mask id="mask0_200_5889" style="mask-type:luminance" maskUnits="userSpaceOnUse" x="7" y="7" width="50" height="50">
<path d="M7 7H57V57H7V7Z" fill="white"/>
</mask>
<g mask="url(#mask0_200_5889)">
<path d="M56.0562 29.7734L34.2264 7.94363C33.7764 7.49305 33.2027 7.18618 32.5781 7.06188C31.9534 6.93758 31.306 7.00144 30.7177 7.24538C30.3272 7.40743 29.9724 7.64468 29.6734 7.94363L25.1422 12.4749L30.8922 18.2249C32.2297 17.7561 33.7609 18.0764 34.8264 19.1421C35.3337 19.6503 35.6879 20.2909 35.8484 20.9907C36.0089 21.6906 35.9693 22.4215 35.7342 23.0999L41.2764 28.6421C42.6172 28.1796 44.1639 28.4779 45.2342 29.5514C45.7703 30.0872 46.1354 30.7701 46.2832 31.5136C46.431 32.2571 46.3549 33.0277 46.0644 33.7279C45.6751 34.6666 44.929 35.4123 43.99 35.8011C43.0511 36.1899 41.9962 36.1899 41.0572 35.8011C40.5922 35.6084 40.1697 35.3261 39.8139 34.9701C38.6889 33.8451 38.4109 32.1889 38.9797 30.8029L33.8109 25.6341V39.2359C34.1862 39.4215 34.529 39.6663 34.8264 39.9609C35.545 40.6794 35.9487 41.654 35.9487 42.6703C35.9487 43.6865 35.545 44.6611 34.8264 45.3796C34.1079 46.0982 33.1333 46.5019 32.1171 46.5019C31.1009 46.5019 30.1263 46.0982 29.4077 45.3796C28.8714 44.844 28.5062 44.1612 28.3581 43.4178C28.2101 42.6744 28.286 41.9039 28.5762 41.2036C28.7689 40.7387 29.0515 40.3164 29.4077 39.9609C29.7779 39.5921 30.1889 39.3124 30.6624 39.1249V25.3966C30.1926 25.2046 29.7659 24.9205 29.4077 24.5609C28.8697 24.0235 28.5039 23.338 28.357 22.5919C28.2101 21.8458 28.2886 21.0729 28.5827 20.3716L22.9109 14.7034L7.94219 29.6564C7.49156 30.1067 7.18464 30.6806 7.06026 31.3054C6.93588 31.9302 6.99963 32.5778 7.24344 33.1664C7.40558 33.5571 7.64301 33.9121 7.94219 34.2111L29.7734 56.0391C30.0724 56.3381 30.4272 56.5753 30.8177 56.7374C31.6068 57.0636 32.4931 57.0636 33.2822 56.7374C33.6727 56.5753 34.0275 56.3381 34.3264 56.0391L56.0562 34.3439C56.3554 34.0449 56.5928 33.6899 56.7547 33.2992C56.9167 32.9084 57.0001 32.4896 57.0002 32.0666C57.0002 31.6436 56.9168 31.2247 56.7548 30.834C56.5928 30.4432 56.3554 30.0881 56.0562 29.7891" fill="white"/>
</g>
</svg>
