<svg width="64" height="64" viewBox="0 0 64 64" fill="none" xmlns="http://www.w3.org/2000/svg">
<path d="M52.0332 9.09839C53.5085 8.89622 55.0106 9.03742 56.4219 9.51245C57.7451 9.95792 58.9553 10.6853 59.9688 11.6423L60.1689 11.8367C61.9689 13.6478 63.902 17.0627 63.4268 21.49C62.9519 25.9124 60.061 31.4558 51.9883 37.4949C49.5322 39.3331 47.8982 42.0677 46.8652 45.0867C45.8318 48.1073 45.3883 51.4446 45.3359 54.5378V54.5388C45.334 54.6598 45.2846 54.7754 45.1982 54.8601C45.112 54.9447 44.9958 54.9923 44.875 54.9919H40.5371L40.4541 54.9841C40.3723 54.9691 40.2955 54.9315 40.2324 54.8757C40.1485 54.8014 40.0947 54.699 40.0811 54.5876L40.0801 54.5847L40.0312 54.2654C39.7517 52.6772 38.9397 51.2276 37.7236 50.1589C36.4266 49.0191 34.7589 48.3904 33.0322 48.3904C31.3055 48.3904 29.6379 49.0191 28.3408 50.1589C27.0438 51.2988 26.2062 52.8723 25.9844 54.5847L25.9834 54.5876C25.9697 54.699 25.916 54.8014 25.832 54.8757C25.748 54.9501 25.6396 54.9919 25.5273 54.9919H21.1357C21.0222 54.9917 20.9124 54.9497 20.8271 54.8748C20.7634 54.8186 20.7161 54.7467 20.6904 54.6667L20.6729 54.5837C20.4563 52.8688 19.6207 51.2916 18.3242 50.1482C17.0273 49.0045 15.3571 48.3738 13.6279 48.3738C11.8987 48.3739 10.2285 49.0044 8.93164 50.1482C7.63479 51.292 6.80019 52.8701 6.58398 54.5857V54.5876C6.5703 54.6991 6.5157 54.8013 6.43164 54.8757C6.34759 54.9501 6.23916 54.9919 6.12695 54.9919H1.62402C1.51515 54.9909 1.4101 54.9519 1.32617 54.8826C1.26323 54.8305 1.21473 54.7636 1.18555 54.6882L1.16309 54.6101C-1.23032 41.9207 3.09676 31.9392 10.248 26.615L13.9268 32.9714L13.9287 32.9744C14.4436 33.8523 15.1792 34.5809 16.0625 35.0867C16.9452 35.592 17.9448 35.8562 18.9619 35.8562V35.8572L18.9629 35.8562L18.9639 35.8572V35.8562C19.9507 35.8608 20.922 35.6091 21.7812 35.1238L21.7803 35.1228L23.5205 34.1531H23.5928L23.7129 34.0789C25.9189 32.7239 28.0024 31.1785 29.9385 29.4597L29.9414 29.4558C30.0973 29.3147 30.2211 29.1419 30.3047 28.949C30.3673 28.8044 30.4068 28.6512 30.4209 28.4949L30.4268 28.3376C30.4241 28.121 30.3723 27.9079 30.2764 27.7136C30.1831 27.5248 30.0496 27.3593 29.8857 27.2273H29.8867C29.8841 27.225 29.8815 27.2227 29.8789 27.2205C29.8758 27.218 29.8723 27.2151 29.8691 27.2126H29.8682C29.5942 26.9851 29.2493 26.8601 28.8926 26.8601C28.528 26.8602 28.1752 26.99 27.8984 27.2273L27.8916 27.2341C26.0984 28.8309 24.1711 30.2703 22.1318 31.5378L20.3711 32.5251L20.3662 32.5173L20.2656 32.573C19.62 32.9328 18.8592 33.0248 18.1465 32.8289C17.5229 32.6574 16.9799 32.2781 16.6055 31.7576L16.4561 31.5261L12.2734 24.2888C12.0822 23.9515 11.9633 23.5779 11.9229 23.1921C11.8823 22.8054 11.9222 22.4142 12.04 22.0437C12.158 21.6733 12.3509 21.331 12.6074 21.0388C12.864 20.7466 13.1781 20.5103 13.5303 20.3455L13.5332 20.3445C19.5597 17.4772 24.7209 16.7299 29.1943 17.0798C33.6735 17.4303 37.4942 18.8827 40.8418 20.4626C42.5225 21.2559 44.0625 22.0704 45.5293 22.8025C46.984 23.5286 48.3594 24.1704 49.6602 24.5837C50.9626 24.9976 52.2229 25.194 53.4404 25.0007C54.6685 24.8057 55.81 24.2201 56.8828 23.1472C57.7684 22.2644 58.3728 21.1392 58.6172 19.9128C58.8616 18.6862 58.7357 17.4145 58.2559 16.2595C57.776 15.1045 56.9635 14.1179 55.9219 13.4255C54.881 12.7337 53.658 12.3666 52.4082 12.3708C51.043 12.3668 49.7137 12.8101 48.624 13.6326C48.5342 13.6991 48.4231 13.7314 48.3115 13.7234C48.2276 13.7173 48.1474 13.6887 48.0791 13.6414L48.0146 13.5876L46.7578 12.2869L46.7559 12.2849L46.6934 12.2078C46.6405 12.1273 46.6124 12.0328 46.6104 11.9353C46.613 11.8737 46.6262 11.8129 46.6514 11.7566C46.6777 11.6976 46.7148 11.6437 46.7617 11.5994C48.2183 10.2415 50.0602 9.36865 52.0332 9.09839ZM42.4453 25.908L42.2402 25.9441C41.692 26.0632 41.2009 26.367 40.8496 26.8044C40.4984 27.2419 40.3084 27.7874 40.3105 28.3484L40.3115 28.655L40.5859 28.7927L43.415 30.2136V30.8982L44.209 30.3201C44.6641 29.9888 44.9914 29.5107 45.1357 28.9666C45.28 28.4225 45.233 27.845 45.002 27.3318C44.7707 26.8184 44.3695 26.3997 43.8662 26.1472C43.4258 25.9263 42.9305 25.8437 42.4453 25.908Z" fill="#02303A" stroke="#E9D8D8"/>
</svg>
