<svg width="46" height="64" viewBox="0 0 46 64" fill="none" xmlns="http://www.w3.org/2000/svg">
<path d="M45.3086 12.5457L41.1883 58.7037L22.6673 63.8382L4.19733 58.7107L0.0812988 12.5457H45.3086Z" fill="#E44D26"/>
<path d="M22.6951 59.9135L37.661 55.7645L41.1818 16.3203H22.6951V59.9135Z" fill="#F16529"/>
<path d="M14.6853 27.6444H22.6951V21.9824H8.49756L8.633 23.5014L10.0247 39.1043H22.6951V33.4423H15.2028L14.6853 27.6444ZM15.9614 41.9354H10.2777L11.0709 50.8255L22.669 54.045L22.6951 54.0379V48.1471L22.6703 48.1536L16.3646 46.451L15.9614 41.9354Z" fill="#EBEBEB"/>
<path d="M4.28931 0H7.16665V2.84277H9.7988V0H12.6763V8.60862H9.79898V5.72596H7.16682V8.60862H4.28948L4.28931 0ZM16.4599 2.85483H13.9272V0H21.8721V2.85483H19.3378V8.60862H16.4605V2.85483H16.4599ZM23.133 0H26.1332L27.9787 3.02484L29.8225 0H32.8239V8.60862H29.9583V4.34172L27.9787 7.40255H27.9291L25.9483 4.34172V8.60862H23.133V0ZM34.2558 0H37.1341V5.76319H41.1804V8.60862H34.2557L34.2558 0Z" fill="black"/>
<path d="M22.6755 39.1043H29.6476L28.9902 46.4474L22.6753 48.1519V54.0423L34.2827 50.8255L34.3678 49.8689L35.6985 34.9627L35.8366 33.4423H22.6755V39.1043ZM22.6755 27.6306V27.6444H36.3518L36.4653 26.3718L36.7234 23.5014L36.8586 21.9824H22.6755V27.6306Z" fill="white"/>
</svg>
