<svg width="64" height="64" viewBox="0 0 64 64" fill="none" xmlns="http://www.w3.org/2000/svg">
<path d="M26.2904 33.9084C26.2904 33.9084 24.6484 34.8639 27.4609 35.1869C30.8679 35.5759 32.6094 35.5199 36.3634 34.8104C36.3634 34.8104 37.3529 35.4289 38.7309 35.9649C30.3129 39.5714 19.6789 35.7559 26.2904 33.9084ZM25.2609 29.2009C25.2609 29.2009 23.4189 30.5654 26.2334 30.8564C29.8734 31.2319 32.7469 31.2629 37.7229 30.3049C37.7229 30.3049 38.4094 31.0029 39.4909 31.3834C29.3149 34.3604 17.9804 31.6179 25.2609 29.2009Z" fill="#0074BD"/>
<path d="M33.9324 21.2155C36.0079 23.6045 33.3884 25.7525 33.3884 25.7525C33.3884 25.7525 38.6549 23.034 36.2364 19.6285C33.9769 16.454 32.2454 14.8775 41.6219 9.43945C41.6219 9.43945 26.9029 13.1145 33.9324 21.2155Z" fill="#EA2D2E"/>
<path d="M45.0659 37.3904C45.0659 37.3904 46.2819 38.3929 43.7269 39.1679C38.8689 40.6394 23.5049 41.0834 19.2374 39.2264C17.7044 38.5589 20.5809 37.6329 21.4854 37.4384C22.4289 37.2339 22.9679 37.2714 22.9679 37.2714C21.2619 36.0699 11.9404 39.6309 18.2334 40.6524C35.3954 43.4339 49.5169 39.3994 45.0659 37.3904ZM27.0809 24.3234C27.0809 24.3234 19.2664 26.1799 24.3139 26.8549C26.4459 27.1399 30.6929 27.0744 34.6519 26.7424C37.8864 26.4709 41.1324 25.8904 41.1324 25.8904C41.1324 25.8904 39.9929 26.3794 39.1674 26.9424C31.2304 29.0299 15.9009 28.0574 20.3144 25.9234C24.0459 24.1179 27.0809 24.3234 27.0809 24.3234ZM41.0999 32.1584C49.1674 27.9674 45.4369 23.9394 42.8334 24.4819C42.1969 24.6149 41.9109 24.7299 41.9109 24.7299C41.9109 24.7299 42.1484 24.3579 42.5999 24.1984C47.7509 22.3884 51.7114 29.5389 40.9389 32.3709C40.9389 32.3709 41.0624 32.2589 41.0999 32.1584Z" fill="#0074BD"/>
<path d="M36.2369 0.656494C36.2369 0.656494 40.7044 5.12599 31.9989 11.9975C25.0179 17.511 30.4069 20.654 31.9959 24.2465C27.9209 20.5695 24.9319 17.3325 26.9369 14.3205C29.8814 9.89949 38.0389 7.75499 36.2369 0.656494Z" fill="#EA2D2E"/>
<path d="M27.8744 43.5196C35.6164 44.0146 47.5089 43.2441 47.7904 39.5806C47.7904 39.5806 47.2494 40.9691 41.3909 42.0711C34.7819 43.3151 26.6294 43.1706 21.7954 42.3726C21.7954 42.3726 22.7854 43.1926 27.8744 43.5196Z" fill="#0074BD"/>
<path d="M47.4329 50.0906H47.1969V49.9586H47.832V50.0906H47.597V50.7491H47.4324L47.4329 50.0906ZM48.7005 50.1236H48.6974L48.4635 50.7491H48.3554L48.123 50.1236H48.1204V50.7491H47.9645V49.9586H48.193L48.4085 50.5181L48.6245 49.9586H48.8515V50.7491H48.7005V50.1236ZM26.6054 57.5186C25.8754 58.1516 25.1034 58.5076 24.4099 58.5076C23.4229 58.5076 22.8875 57.9146 22.8875 56.9651C22.8875 55.9376 23.4604 55.1851 25.7564 55.1851H26.6049L26.6054 57.5186ZM28.6209 59.7926V52.7541C28.6209 50.9546 27.5944 49.7676 25.1224 49.7676C23.6794 49.7676 22.4144 50.1246 21.3859 50.5786L21.6819 51.8251C22.4919 51.5276 23.5394 51.2516 24.5674 51.2516C25.9924 51.2516 26.6049 51.8251 26.6049 53.0121V53.9016H25.8929C22.4324 53.9016 20.8709 55.2441 20.8709 57.2631C20.8709 59.0026 21.8999 59.9911 23.8374 59.9911C25.0824 59.9911 26.0129 59.4771 26.8814 58.7246L27.0394 59.7931L28.6209 59.7926ZM35.347 59.7926H32.8335L29.808 49.9481H32.0035L33.8815 55.9976L34.299 57.8151C35.247 55.1861 35.919 52.5171 36.255 49.9486H38.3904C37.8189 53.1891 36.789 56.7476 35.347 59.7926ZM44.991 57.5186C44.2585 58.1516 43.4859 58.5076 42.7949 58.5076C41.8069 58.5076 41.2719 57.9146 41.2719 56.9651C41.2719 55.9376 41.8464 55.1851 44.1399 55.1851H44.9905L44.991 57.5186ZM47.0075 59.7926V52.7541C47.0075 50.9546 45.9779 49.7676 43.5079 49.7676C42.0634 49.7676 40.799 50.1246 39.7705 50.5786L40.067 51.8251C40.877 51.5276 41.9259 51.2516 42.9539 51.2516C44.3769 51.2516 44.991 51.8251 44.991 53.0121V53.9016H44.2789C40.8174 53.9016 39.2565 55.2441 39.2565 57.2631C39.2565 59.0026 40.2845 59.9911 42.2215 59.9911C43.467 59.9911 44.3959 59.4771 45.2669 58.7246L45.4259 59.7931L47.0075 59.7926ZM18.6609 61.4656C18.0874 62.3051 17.1584 62.9696 16.1424 63.3441L15.1479 62.1716C15.9214 61.7746 16.5839 61.1341 16.8924 60.5371C17.1584 60.0056 17.2689 59.3221 17.2689 57.6866V46.4456H19.4109V57.5321C19.4109 59.7196 19.2369 60.6041 18.6609 61.4656Z" fill="#EA2D2E"/>
</svg>
