<svg width="64" height="64" viewBox="0 0 64 64" fill="none" xmlns="http://www.w3.org/2000/svg">
<path d="M20.6129 38.3891C20.498 38.1893 20.4185 37.9711 20.3779 37.7441C20.4229 37.9701 20.5029 38.1876 20.6129 38.3891ZM20.9019 38.7456C21.0129 38.8556 21.1379 38.9511 21.2764 39.0196C21.1381 38.9489 21.0119 38.8564 20.9029 38.7456H20.9019Z" fill="#083042"/>
<path d="M32.171 50.9835H32.101C31.3998 50.9864 30.7093 50.8117 30.094 50.4755L16.003 42.6005C15.1715 42.1345 14.66 41.2705 14.66 40.337V24.314C14.66 23.6275 14.7845 22.969 15.075 22.393L4.05697 16.261C3.60047 17.221 3.36547 18.305 3.37897 19.444V45.9075C3.38728 46.6728 3.59785 47.4224 3.98931 48.0801C4.38077 48.7378 4.9392 49.2802 5.60797 49.6525L28.8485 62.6585C29.8735 63.2345 31.022 63.509 32.157 63.509V63.4955C32.1845 61.8355 32.171 55.181 32.171 50.9835Z" fill="#083042"/>
<path d="M43.2299 25.3L43.1464 25.177C43.0774 25.081 43.0089 24.9985 42.9399 24.903C43.0089 24.985 43.0774 25.0815 43.1464 25.177C43.1802 25.2137 43.2084 25.2548 43.2299 25.3ZM31.6309 18.88C31.7009 18.88 31.7564 18.8665 31.8259 18.8665C31.7564 18.88 31.6869 18.88 31.6309 18.88Z" fill="#3DDB85"/>
<path d="M15.0609 22.3786C15.3697 21.7383 15.8612 21.2039 16.4734 20.8426L29.7334 13.0911C30.3408 12.7344 31.031 12.5429 31.7354 12.5357C32.4398 12.5285 33.1338 12.7058 33.7484 13.0501L47.1474 20.5546C47.7487 20.8902 48.265 21.3595 48.6564 21.9261L59.4949 15.5201C58.8504 14.5919 58.0032 13.8225 57.0174 13.2701L34.8829 0.882062C33.8697 0.315962 32.7261 0.0244745 31.5655 0.0364898C30.405 0.0485051 29.2677 0.363606 28.2664 0.950562L6.38238 13.7361C5.37224 14.3261 4.5622 15.2055 4.05688 16.2606L15.0609 22.3786Z" fill="#3DDC84"/>
<path d="M20.6384 25.4661C20.6664 25.4111 20.6939 25.3561 20.7224 25.3161C20.6939 25.3706 20.6669 25.4111 20.6384 25.4661Z" fill="#3DDB85"/>
<path d="M59.481 15.52L48.6425 21.926C49.0575 22.5295 49.307 23.2425 49.32 23.9705V39.2255C49.3284 39.9242 49.1509 40.6126 48.8056 41.2201C48.4603 41.8276 47.9597 42.3323 47.355 42.6825L34.094 50.435C33.5085 50.776 32.8468 50.9645 32.1695 50.9835C32.184 55.168 32.184 61.822 32.156 63.482V63.4955C33.3184 63.4828 34.4578 63.1708 35.4645 62.5895L57.349 49.79C59.384 48.5965 60.63 46.4285 60.602 44.0825V18.9085C60.588 17.6875 60.173 16.5215 59.481 15.52Z" fill="#4285F4"/>
<path d="M43.4816 37.5936C43.4676 37.6216 43.4676 37.6491 43.4536 37.6776C43.4691 37.652 43.4786 37.6233 43.4816 37.5936ZM43.3426 25.4801C43.3141 25.4111 43.2726 25.3561 43.2311 25.2876C43.2726 25.3561 43.3146 25.4251 43.3426 25.4801ZM33.4036 44.2881L42.2901 39.0891L33.4036 44.2891V44.2881ZM43.3701 37.9091C43.3421 37.9781 43.3006 38.0466 43.2721 38.1156C43.3006 38.0331 43.3281 37.9641 43.3701 37.9091Z" fill="#4285F4"/>
<path d="M20.5989 25.589C20.4861 25.8555 20.4161 26.1382 20.3914 26.4265C20.3774 26.5355 20.3774 26.6455 20.3774 26.7695V37.511C20.3774 37.593 20.3774 37.662 20.3914 37.7445C20.4194 37.977 20.5024 38.197 20.6264 38.3895C20.7099 38.5265 20.8064 38.6355 20.9039 38.7455C21.0149 38.8555 21.1389 38.951 21.2769 39.0205L30.7179 44.302C31.1287 44.5288 31.5907 44.6467 32.0599 44.6445H32.1574C32.5975 44.6295 33.0265 44.5022 33.4034 44.2745L42.2899 39.075C42.3454 39.0475 42.3869 39.006 42.4424 38.979C42.5394 38.9105 42.6364 38.8415 42.7194 38.759C42.8498 38.641 42.9696 38.513 43.0789 38.375C43.1479 38.279 43.2174 38.1835 43.2729 38.087C43.3139 38.019 43.3424 37.95 43.3694 37.881C43.3974 37.8135 43.4394 37.7305 43.4669 37.6485C43.4804 37.6205 43.4804 37.593 43.4944 37.566C43.5783 37.2996 43.6203 37.0218 43.6189 36.7425V26.522C43.6189 26.3305 43.5909 26.152 43.5499 25.974C43.5224 25.85 43.4799 25.74 43.4389 25.63L43.3559 25.466C43.3284 25.397 43.2859 25.3425 43.2449 25.2735L43.1619 25.1505C43.0929 25.054 43.0234 24.972 42.9544 24.876C42.729 24.6132 42.4567 24.3945 42.1514 24.231L33.1684 19.197C33.0136 19.1094 32.8513 19.0358 32.6834 18.977C32.4582 18.909 32.2258 18.8677 31.9909 18.854H31.8109C31.7424 18.854 31.6869 18.854 31.6179 18.867C31.4589 18.8813 31.3014 18.9089 31.1469 18.9495C31.1194 18.963 31.0919 18.963 31.0639 18.9775C30.8564 19.0325 30.6624 19.128 30.4684 19.2375L21.5819 24.4375C21.324 24.5891 21.0981 24.7895 20.9169 25.0275C20.8484 25.1235 20.7789 25.2195 20.7234 25.3155C20.6959 25.3705 20.6684 25.4115 20.6404 25.4665L20.5989 25.589Z" fill="#D6F0FF"/>
<path d="M32.156 44.6442H32.059C31.5895 44.6467 31.1271 44.5289 30.716 44.3021L21.276 39.0202C21.1403 38.9447 21.0147 38.8525 20.902 38.7456C20.7938 38.6399 20.7005 38.5198 20.625 38.3887C20.5101 38.1888 20.4306 37.9706 20.39 37.7437C20.3755 37.6622 20.3755 37.5932 20.3755 37.5112V26.7687C20.3755 26.6592 20.3755 26.5362 20.39 26.4257C20.4165 26.1382 20.486 25.8556 20.5975 25.5886L18.05 24.0392L15.06 22.3792C14.783 22.9552 14.645 23.6132 14.645 24.2997V40.3232C14.6532 40.7846 14.7812 41.2359 15.0166 41.6328C15.252 42.0298 15.5866 42.3587 15.9875 42.5872L30.066 50.4751C30.6788 50.8177 31.371 50.9929 32.073 50.9832H32.143C32.143 48.9387 32.1285 47.4847 32.1285 47.4847L32.156 44.6442Z" fill="#083042"/>
<path d="M32.156 44.6442H32.059C31.5895 44.6467 31.1271 44.5289 30.716 44.3021L21.276 39.0202C21.1403 38.9447 21.0147 38.8525 20.902 38.7456C20.7938 38.6399 20.7005 38.5198 20.625 38.3887C20.5101 38.1888 20.4306 37.9706 20.39 37.7437C20.3755 37.6622 20.3755 37.5932 20.3755 37.5112V26.7687C20.3755 26.6592 20.3755 26.5362 20.39 26.4257C20.4165 26.1382 20.486 25.8556 20.5975 25.5886L18.05 24.0392L15.06 22.3792C14.783 22.9552 14.645 23.6132 14.645 24.2997V40.3232C14.6532 40.7846 14.7812 41.2359 15.0166 41.6328C15.252 42.0298 15.5866 42.3587 15.9875 42.5872L30.066 50.4751C30.6788 50.8177 31.371 50.9929 32.073 50.9832H32.143C32.143 48.9387 32.1285 47.4847 32.1285 47.4847L32.156 44.6442Z" fill="#041619"/>
<path d="M47.1329 20.5546L33.7334 13.0496C33.1188 12.7055 32.4249 12.5283 31.7206 12.5356C31.0163 12.5429 30.3262 12.7344 29.7189 13.0911L16.4589 20.8431C15.8436 21.2009 15.351 21.7365 15.0459 22.3796L18.0509 24.0396L20.5974 25.5891L20.6384 25.4661C20.6664 25.4106 20.6939 25.3561 20.7214 25.3151C20.7769 25.2191 20.8464 25.1231 20.9154 25.0271C21.0954 24.7936 21.3169 24.6021 21.5804 24.4371L30.4664 19.2371C30.6564 19.1304 30.8549 19.0438 31.0619 18.9771C31.0899 18.9636 31.1174 18.9636 31.1449 18.9491C31.2992 18.9071 31.4561 18.8798 31.6154 18.8671C31.6844 18.8671 31.7399 18.8531 31.8094 18.8531H31.9894C32.2239 18.8681 32.4559 18.9086 32.6814 18.9761C32.8521 19.0301 33.0136 19.1036 33.1659 19.1966L42.1489 24.2316C42.4521 24.3984 42.7241 24.6165 42.9529 24.8761C43.0214 24.9581 43.0914 25.0546 43.1599 25.1501L43.2434 25.2731L45.5409 23.7511L48.6554 21.8991C48.2539 21.3636 47.7419 20.8836 47.1329 20.5546Z" fill="#3DDB85"/>
<path d="M47.1329 20.5546L33.7334 13.0496C33.1188 12.7055 32.4249 12.5283 31.7206 12.5356C31.0163 12.5429 30.3262 12.7344 29.7189 13.0911L16.4589 20.8431C15.8436 21.2009 15.351 21.7365 15.0459 22.3796L18.0509 24.0396L20.5974 25.5891L20.6384 25.4661C20.6664 25.4106 20.6939 25.3561 20.7214 25.3151C20.7769 25.2191 20.8464 25.1231 20.9154 25.0271C21.0954 24.7936 21.3169 24.6021 21.5804 24.4371L30.4664 19.2371C30.6564 19.1304 30.8549 19.0438 31.0619 18.9771C31.0899 18.9636 31.1174 18.9636 31.1449 18.9491C31.2992 18.9071 31.4561 18.8798 31.6154 18.8671C31.6844 18.8671 31.7399 18.8531 31.8094 18.8531H31.9894C32.2239 18.8681 32.4559 18.9086 32.6814 18.9761C32.8521 19.0301 33.0136 19.1036 33.1659 19.1966L42.1489 24.2316C42.4521 24.3984 42.7241 24.6165 42.9529 24.8761C43.0214 24.9581 43.0914 25.0546 43.1599 25.1501L43.2434 25.2731L45.5409 23.7511L48.6554 21.8991C48.2539 21.3636 47.7419 20.8836 47.1329 20.5546Z" fill="#37BF6E"/>
<path d="M43.2301 25.3011C43.2716 25.3691 43.2996 25.4241 43.3406 25.4931L43.4241 25.6576C43.5404 25.9406 43.6015 26.2432 43.6041 26.5491V36.7701C43.6052 37.0493 43.5631 37.3269 43.4791 37.5931C43.4656 37.6201 43.4656 37.6481 43.4516 37.6751C43.4253 37.7554 43.393 37.8336 43.3551 37.9091C43.3266 37.9766 43.2851 38.0456 43.2576 38.1141C43.2026 38.2106 43.1331 38.3061 43.0636 38.4026C42.9552 38.5407 42.8349 38.6691 42.7041 38.7861C42.6211 38.8686 42.5241 38.9371 42.4271 39.0061C42.3716 39.0331 42.3306 39.0746 42.2751 39.1021L33.3881 44.3011C33.0059 44.5169 32.58 44.6437 32.1421 44.6721V47.5116C32.1421 47.5116 32.1421 48.9661 32.1561 51.0101C32.8344 50.9978 33.4977 50.8087 34.0806 50.4616L47.3406 42.7096C48.5731 41.9831 49.3206 40.6656 49.3066 39.2531V23.9976C49.2931 23.2566 49.0441 22.5566 48.6291 21.9531L45.5136 23.8056L43.2301 25.3011Z" fill="#4285F4"/>
<path d="M43.2301 25.3011C43.2716 25.3691 43.2996 25.4241 43.3406 25.4931L43.4241 25.6576C43.5404 25.9406 43.6015 26.2432 43.6041 26.5491V36.7701C43.6052 37.0493 43.5631 37.3269 43.4791 37.5931C43.4656 37.6201 43.4656 37.6481 43.4516 37.6751C43.4253 37.7554 43.393 37.8336 43.3551 37.9091C43.3266 37.9766 43.2851 38.0456 43.2576 38.1141C43.2026 38.2106 43.1331 38.3061 43.0636 38.4026C42.9552 38.5407 42.8349 38.6691 42.7041 38.7861C42.6211 38.8686 42.5241 38.9371 42.4271 39.0061C42.3716 39.0331 42.3306 39.0746 42.2751 39.1021L33.3881 44.3011C33.0059 44.5169 32.58 44.6437 32.1421 44.6721V47.5116C32.1421 47.5116 32.1421 48.9661 32.1561 51.0101C32.8344 50.9978 33.4977 50.8087 34.0806 50.4616L47.3406 42.7096C48.5731 41.9831 49.3206 40.6656 49.3066 39.2531V23.9976C49.2931 23.2566 49.0441 22.5566 48.6291 21.9531L45.5136 23.8056L43.2301 25.3011Z" fill="#3870B2"/>
<path d="M31.0775 18.991C30.8695 19.046 30.6755 19.142 30.4825 19.251L21.5955 24.451L30.4815 19.252C30.6662 19.137 30.8666 19.0494 31.0765 18.992L31.0775 18.991Z" fill="#D6F0FF"/>
<path opacity="0.1" d="M31.0775 18.991C30.8695 19.046 30.6755 19.142 30.4825 19.251L21.5955 24.451L30.4815 19.252C30.6662 19.137 30.8666 19.0494 31.0765 18.992L31.0775 18.991Z" fill="black"/>
<path d="M43.4239 25.6445C43.4663 25.7566 43.5031 25.8707 43.5339 25.9865C43.5064 25.877 43.4639 25.7675 43.4229 25.6445H43.4239Z" fill="#D6F0FF"/>
<path opacity="0.1" d="M43.4239 25.6445C43.4663 25.7566 43.5031 25.8707 43.5339 25.9865C43.5064 25.877 43.4639 25.7675 43.4229 25.6445H43.4239Z" fill="black"/>
</svg>
