<svg width="64" height="64" viewBox="0 0 64 64" fill="none" xmlns="http://www.w3.org/2000/svg">
<path d="M55.9894 31.2321L59.3201 31.1254C59.304 30.6157 59.1713 30.1165 58.932 29.6662C58.6927 29.2159 58.3533 28.8265 57.9399 28.528C57.5264 28.2294 57.05 28.0297 56.5473 27.9442C56.0446 27.8587 55.5289 27.8897 55.0401 28.0348L55.9894 31.2321ZM32.7707 8.01343L35.9654 8.9601C36.1105 8.47102 36.1415 7.95516 36.0558 7.45224C35.9702 6.94932 35.7702 6.47278 35.4714 6.05931C35.1726 5.64583 34.7828 5.30647 34.3322 5.06736C33.8815 4.82824 33.382 4.69575 32.8721 4.6801L32.7707 8.01343ZM55.0401 28.0348C53.6209 28.4534 52.1464 28.6662 50.6667 28.6668V35.3334C52.7892 35.3334 54.9006 35.028 56.9361 34.4268L55.0401 28.0348ZM50.6667 28.6668C46.6001 28.6668 42.7 27.0513 39.8244 24.1757C36.9489 21.3002 35.3334 17.4001 35.3334 13.3334H28.6667C28.6667 19.1682 30.9846 24.764 35.1104 28.8898C39.2362 33.0156 44.832 35.3334 50.6667 35.3334V28.6668ZM35.3334 13.3334C35.3334 11.8081 35.5548 10.3414 35.9654 8.9601L29.5734 7.06677C28.9724 9.10141 28.6671 11.2119 28.6667 13.3334H35.3334ZM32.0001 11.3334C32.2205 11.3334 32.4427 11.337 32.6667 11.3441L32.8747 4.6801C32.5833 4.67087 32.2917 4.66643 32.0001 4.66677V11.3334ZM11.3334 32.0001C11.3334 26.519 13.5108 21.2623 17.3865 17.3866C21.2623 13.5108 26.5189 11.3334 32.0001 11.3334V4.66677C16.9067 4.66677 4.66675 16.9068 4.66675 32.0001H11.3334ZM32.0001 52.6668C26.5189 52.6668 21.2623 50.4894 17.3865 46.6136C13.5108 42.7379 11.3334 37.4812 11.3334 32.0001H4.66675C4.66675 47.0934 16.9067 59.3334 32.0001 59.3334V52.6668ZM52.6667 32.0001C52.6667 37.4812 50.4894 42.7379 46.6136 46.6136C42.7379 50.4894 37.4812 52.6668 32.0001 52.6668V59.3334C47.0934 59.3334 59.3334 47.0934 59.3334 32.0001H52.6667ZM52.6561 31.3334C52.6632 31.5574 52.6667 31.7797 52.6667 32.0001H59.3334C59.3334 31.7068 59.329 31.4152 59.3201 31.1254L52.6561 31.3334Z" fill="#551A8B"/>
</svg>
