<svg width="64" height="64" viewBox="0 0 64 64" fill="none" xmlns="http://www.w3.org/2000/svg">
<path d="M15 0.5H49C57.0081 0.5 63.5 6.99187 63.5 15V49C63.5 57.0081 57.0081 63.5 49 63.5H15C6.99187 63.5 0.5 57.0081 0.5 49V15C0.5 6.99187 6.99187 0.5 15 0.5Z" fill="#F4F2ED" stroke="black"/>
<path d="M21.4874 49.9815L27.6199 53.3865H36.8939L45.5694 46.8727L49.4584 36.658L40.4837 25.8512L37.9409 19.7817L25.5259 20.2257L25.6754 23.6307L23.2822 28.0717L19.5427 35.3257L18.7949 41.3952L21.4874 49.9815Z" fill="#ECEFF1"/>
<path d="M46.766 28.664C44.3727 25.259 42.4282 23.1865 41.3812 18.8935C40.3342 14.6005 41.6805 15.7848 40.783 12.0835C40.3342 10.1593 39.5862 8.82678 38.8385 7.79053C37.941 6.75428 36.894 6.16203 36.2955 6.01403C34.9495 5.27403 31.8082 4.08953 27.9192 6.16203C23.8805 8.23453 24.3292 12.6758 25.0772 21.7063C25.0772 22.2983 24.9275 23.0388 24.6285 23.6308C24.0302 24.9633 22.983 26.1473 22.0857 27.1838C21.0385 28.664 19.9915 30.1445 19.2437 31.7728C17.4487 35.1778 15.8032 39.4708 16.252 41.0993C17 40.9513 26.4235 55.163 26.4235 55.459C27.0217 55.311 29.5645 55.311 31.8082 55.311C34.9495 55.163 36.7442 55.015 39.2872 55.607C39.2872 55.163 39.1375 54.7188 39.1375 54.2748C39.1375 53.3865 39.2872 52.6463 39.4367 51.61C39.5862 50.8698 39.736 50.1298 39.8855 49.2415C38.3897 50.5738 35.6972 52.0543 33.1545 52.4983C30.9107 52.9423 27.1712 52.2023 25.3762 49.9815C25.526 49.9815 25.825 49.9815 25.9747 49.8335C26.4235 49.6855 26.8722 49.5375 27.0217 49.2415C27.4705 48.5013 27.1712 47.761 26.8722 47.317C26.573 46.8728 24.3292 45.2443 23.2822 44.3563C22.2352 43.468 21.637 43.0238 21.0385 42.4318L19.842 41.2473C19.5427 40.9513 19.3932 40.6553 19.2437 40.507C18.9445 39.767 18.795 38.8788 18.9445 37.6945C19.094 36.066 19.6922 34.7335 20.4402 33.2533C20.7395 32.661 21.4872 31.4768 21.4872 31.4768C21.4872 31.4768 18.9445 37.6945 20.2907 39.619C20.2907 39.619 20.4402 37.6945 21.0385 35.77C21.4872 34.4375 22.2352 32.513 23.1327 31.4768C24.0302 30.4405 26.2737 26.5915 26.4235 24.2228C26.4235 23.1865 26.573 22.1503 26.573 21.4103C25.9747 20.8178 36.4452 19.3378 37.0435 20.966C37.193 21.5583 39.2872 26.8875 40.4837 29.7003C41.082 31.0328 41.83 32.217 42.2787 33.6973C42.7275 35.3258 43.0265 37.5463 43.0265 39.767C43.0265 40.211 43.0265 40.9513 42.877 41.6915C43.1762 41.6915 49.0097 35.4738 42.1292 30.2925C42.1292 30.2925 46.3172 32.217 46.467 36.066C46.6165 39.1748 45.2702 41.6915 44.9712 42.1355C45.1207 42.1355 48.1122 43.468 48.2617 43.468C48.8602 43.468 50.0567 43.0238 50.0567 43.0238C50.2065 42.5798 50.655 41.3953 50.655 40.9513C51.7022 37.5463 49.1592 32.069 46.766 28.664Z" fill="#263238"/>
<path d="M27.7695 18.8934C28.8435 18.8934 29.714 17.5676 29.714 15.9326C29.714 14.2974 28.8435 12.9719 27.7695 12.9719C26.6955 12.9719 25.825 14.2974 25.825 15.9324C25.825 17.5674 26.6957 18.8934 27.7695 18.8934ZM34.5005 19.1894C35.905 19.1894 37.0434 17.6649 37.0434 15.7844C37.0434 13.9039 35.905 12.3799 34.5005 12.3799C33.0962 12.3799 31.9577 13.9044 31.9577 15.7849C31.9577 17.6654 33.0962 19.1899 34.5005 19.1899" fill="#ECEFF1"/>
<path d="M28.856 16.1351C28.7318 15.1619 28.1658 14.4309 27.592 14.5026C27.0183 14.5744 26.654 15.4216 26.7785 16.3951C26.9028 17.3684 27.4685 18.0994 28.0423 18.0276C28.616 17.9556 28.9803 17.1084 28.856 16.1351ZM34.3513 18.3011C35.1773 18.3011 35.847 17.4396 35.847 16.3766C35.847 15.3139 35.1773 14.4521 34.3513 14.4521C33.525 14.4521 32.8553 15.3139 32.8553 16.3766C32.8553 17.4394 33.525 18.3011 34.3513 18.3011Z" fill="#212121"/>
<path d="M54.245 48.9452C53.6467 48.6492 52.5995 48.205 51.702 46.8727C51.2535 46.1325 51.403 44.06 50.655 43.1717C50.2062 42.5797 49.608 42.8757 49.4585 42.8757C48.1122 43.1717 44.971 45.2442 42.877 42.8757C42.5777 42.5797 42.129 42.1355 41.3812 42.1355C40.6332 42.1355 40.3342 42.4315 40.035 43.0237C39.7357 43.616 39.7357 44.06 39.7357 45.5405C39.7357 46.7247 39.7357 48.057 39.5862 49.0932C39.287 51.61 38.8385 53.0905 38.8385 54.5707C38.8385 56.1992 39.287 57.2355 39.8855 57.6795C40.3342 58.1237 41.082 58.4197 42.7275 58.4197C44.3727 58.4197 45.4197 57.8277 46.467 56.7912C47.2147 56.0512 47.813 55.755 49.9072 54.2747C51.5525 53.2385 54.0955 51.906 54.544 51.462C54.8432 51.166 55.292 51.0177 55.292 50.1295C55.292 49.3895 54.6937 49.0932 54.245 48.9452ZM24.1797 49.3895C22.684 47.0207 22.5342 46.5767 21.4872 45.0962C20.5897 43.616 18.6452 40.8032 17.4487 40.8032C16.5512 40.8032 16.1025 41.2472 15.5042 41.8395C14.9057 42.4315 14.3075 43.764 13.2605 44.5042C12.363 45.2442 9.82023 45.0962 9.22198 45.9845C8.62373 46.8727 9.82023 48.2052 9.82023 50.4257C9.82023 51.314 9.07223 51.906 8.92273 52.4982C8.77323 53.2385 8.62348 53.6825 8.92273 54.2747C9.52098 55.163 10.269 55.459 15.3545 56.4952C18.047 57.0875 20.5897 58.5677 22.2352 58.716C23.8805 58.864 26.7225 58.716 26.7225 54.7187C26.8722 52.3502 25.526 51.758 24.1797 49.3895ZM27.0217 22.5945C26.1242 22.0022 25.3762 21.41 25.3762 20.522C25.3762 19.6337 25.9747 19.3375 26.8722 18.5975C27.0217 18.4492 28.667 16.969 30.3125 16.969C31.958 16.969 33.9022 18.0052 34.6502 18.3015C35.9965 18.5972 37.3425 18.8935 37.193 19.9297C37.0435 21.41 36.894 21.7062 35.398 22.4465C34.351 22.7425 32.4065 24.371 31.0602 24.371C30.462 24.371 29.5645 24.371 28.9662 24.2227C28.5175 24.0747 27.7695 23.3345 27.0217 22.5945Z" fill="#FFC107"/>
<path d="M26.7225 21.4101C27.0218 21.7064 27.4705 22.0026 27.9193 22.1504C28.2183 22.2984 28.667 22.4466 28.667 22.4466H30.0133C30.7613 22.4466 31.8083 22.1504 32.8553 21.5584C33.9023 21.1141 34.052 20.8181 34.7998 20.5221C35.5478 20.0779 36.2955 19.6339 35.9965 19.4859C35.6973 19.3376 35.398 19.4859 34.351 20.0779C33.4535 20.6701 32.7058 20.9661 31.8083 21.4104C31.3595 21.5584 30.7613 21.8544 30.3125 21.8544H28.9663C28.5175 21.8544 28.2183 21.7064 27.7695 21.5584C27.4705 21.4101 27.3208 21.2621 27.1713 21.2621C26.8723 21.1141 26.2738 20.5221 25.9748 20.3739C25.9748 20.3739 25.6755 20.3739 25.825 20.5221L26.7225 21.4101ZM31.21 18.1534C31.3595 18.4494 31.6588 18.4494 31.8083 18.5974C31.9578 18.7454 32.1075 18.7456 32.1075 18.7456C32.257 18.5974 32.1075 18.3014 31.9578 18.3014C31.9578 18.0054 31.21 18.0054 31.21 18.1534ZM28.8168 18.4494C28.8168 18.5976 29.1158 18.7456 29.1158 18.5976C29.2655 18.4494 29.415 18.3014 29.5645 18.3014C29.8638 18.1534 29.714 18.0054 29.2655 18.0054C28.9663 18.1534 28.9663 18.3014 28.8168 18.4494Z" fill="#634703"/>
<path d="M43.3258 44.6523V45.0963C43.625 45.6885 44.3728 45.8365 44.971 45.8365C45.8685 45.8365 46.766 45.2443 47.2148 44.6523C47.2148 44.5043 47.3643 44.356 47.514 44.208C47.813 43.764 47.9628 43.468 48.1123 43.3198C48.1123 43.3198 47.9628 43.1718 47.9628 43.0238C47.813 42.7278 47.3643 42.4315 46.766 42.2835C46.3173 42.1355 45.5695 41.9875 45.2703 41.9875C43.924 41.8395 43.1763 42.2835 42.7275 42.7278C42.7275 42.7278 42.877 42.7278 42.877 42.8758C43.1763 43.1718 43.3258 43.468 43.3258 43.912C43.4753 44.208 43.3258 44.356 43.3258 44.6523Z" fill="#455A64"/>
</svg>
