<svg width="64" height="64" viewBox="0 0 64 64" fill="none" xmlns="http://www.w3.org/2000/svg">
<path d="M49 0H15C6.71573 0 0 6.71573 0 15V49C0 57.2843 6.71573 64 15 64H49C57.2843 64 64 57.2843 64 49V15C64 6.71573 57.2843 0 49 0Z" fill="#242938"/>
<mask id="mask0_200_5915" style="mask-type:luminance" maskUnits="userSpaceOnUse" x="9" y="9" width="46" height="46">
<path d="M9.5 9.5H54.5V54.5H9.5V9.5Z" fill="white"/>
</mask>
<g mask="url(#mask0_200_5915)">
<path fill-rule="evenodd" clip-rule="evenodd" d="M50.9503 44.5525C48.5028 44.4845 46.6041 44.7353 45.0128 45.4048C44.5546 45.5888 43.8193 45.5888 43.7588 46.1655C44.0038 46.4075 44.0333 46.8035 44.2481 47.139C44.6148 47.7478 45.2583 48.5678 45.8393 48.9933L47.7978 50.3928C48.9913 51.122 50.3378 51.5483 51.5006 52.2783C52.1741 52.7043 52.8471 53.2518 53.5206 53.7085C53.8636 53.9518 54.0713 54.348 54.5001 54.4993V54.4073C54.2861 54.1345 54.2243 53.7393 54.0111 53.4338L53.0918 52.5523C52.2051 51.3663 51.1026 50.3313 49.9091 49.4805C48.9296 48.8113 46.7881 47.899 46.3901 46.7743L46.3298 46.706C47.0021 46.638 47.7978 46.4013 48.4411 46.2188C49.4823 45.946 50.4303 46.006 51.5006 45.7325L52.9706 45.3065V45.0338C52.4196 44.4865 52.0218 43.7563 51.4408 43.2398C49.8803 41.9015 48.1653 40.5933 46.3901 39.4985C45.4416 38.8905 44.2171 38.4943 43.2073 37.9783C42.8391 37.7955 42.2278 37.7043 42.0138 37.4003C41.4616 36.7323 41.1563 35.8493 40.7586 35.058L38.2493 29.766C37.6986 28.5798 37.3611 27.3935 36.6888 26.2988C33.5361 21.128 30.1078 17.9958 24.8438 14.9233C23.7121 14.2845 22.3656 14.0098 20.9338 13.6758L18.6388 13.5533C18.1483 13.3405 17.6591 12.7623 17.2306 12.4883C15.4861 11.3933 10.9871 9.02128 9.7006 12.1475C8.87435 14.1243 10.9253 16.0705 11.6216 17.0748C12.1428 17.7743 12.8151 18.5648 13.1833 19.3558C13.3891 19.8725 13.4578 20.4205 13.6726 20.968C14.1616 22.306 14.6211 23.797 15.2638 25.0445C15.6068 25.6833 15.9671 26.3533 16.3956 26.9308C16.6406 27.2715 17.0693 27.4175 17.1606 27.9648C16.7318 28.5735 16.7023 29.485 16.4573 30.2465C15.3551 33.6835 15.7838 37.9415 17.3443 40.472C17.8348 41.232 18.9906 42.9055 20.5588 42.2663C21.9361 41.7188 21.6288 39.9853 22.0266 38.4643C22.1191 38.0998 22.0576 37.8563 22.2406 37.6123V37.6805L23.4958 40.2048C24.4446 41.695 26.0978 43.2465 27.4743 44.2813C28.2083 44.8288 28.7901 45.7723 29.7078 46.1063V46.0143H29.6476C29.4636 45.7415 29.1878 45.6188 28.9431 45.406C28.3923 44.8588 27.7803 44.1893 27.3516 43.5813C26.0668 41.8783 24.9351 39.992 23.9246 38.0458C23.4343 37.103 23.0056 36.0688 22.6091 35.126C22.4238 34.7608 22.4238 34.2125 22.1186 34.0313C21.6588 34.6993 20.9868 35.2788 20.6486 36.0995C20.0668 37.407 20.0066 39.0193 19.7926 40.6923C19.6691 40.7228 19.7238 40.6923 19.6691 40.7603C18.6908 40.5178 18.3533 39.5128 17.9866 38.662C17.0686 36.5025 16.9148 33.0353 17.7106 30.541C17.9246 29.9023 18.8438 27.8948 18.4768 27.2865C18.2918 26.7085 17.6811 26.3745 17.3436 25.9178C16.9458 25.3398 16.5186 24.6103 16.2428 23.9715C15.5088 22.2673 15.1418 20.3823 14.3453 18.679C13.9771 17.888 13.3351 17.0665 12.8143 16.3373C12.2326 15.5158 11.5913 14.9375 11.1318 13.9648C10.9788 13.624 10.7648 13.0828 11.0096 12.7173C11.0701 12.474 11.1933 12.3765 11.4371 12.322C11.8346 11.981 12.9681 12.4133 13.3658 12.5945C14.4976 13.0513 15.4463 13.4768 16.3951 14.1148C16.8238 14.4188 17.2833 14.997 17.8341 15.1498H18.4776C19.4571 15.3623 20.5581 15.2178 21.4751 15.4905C23.0976 16.0085 24.5661 16.768 25.8831 17.59C29.8918 20.1145 33.1981 23.7035 35.4313 27.9928C35.7983 28.6923 35.9513 29.331 36.2888 30.061C36.9323 31.552 37.7281 33.0723 38.3693 34.533C39.0128 35.9625 39.6246 37.4235 40.5426 38.6095C41.0021 39.2483 42.8376 39.5823 43.6636 39.917C44.2761 40.1898 45.2241 40.4353 45.7763 40.7693C46.8161 41.408 47.8568 42.138 48.8356 42.8375C49.3246 43.2015 50.8558 43.9623 50.9468 44.569L50.9503 44.5525ZM19.7396 18.1218C19.3169 18.1182 18.8955 18.1692 18.4858 18.2738V18.342H18.5461C18.7911 18.8288 19.2198 19.1635 19.5256 19.5895L20.2301 21.0495L20.2906 20.9815C20.7191 20.6775 20.9338 20.1908 20.9338 19.4615C20.7501 19.2488 20.7198 19.0353 20.5668 18.8225C20.3831 18.5185 19.9853 18.3658 19.7396 18.1233V18.1218Z" fill="white"/>
</g>
</svg>
