<svg width="64" height="64" viewBox="0 0 64 64" fill="none" xmlns="http://www.w3.org/2000/svg">
<g clip-path="url(#clip0_234_5851)">
<mask id="mask0_234_5851" style="mask-type:luminance" maskUnits="userSpaceOnUse" x="0" y="0" width="64" height="64">
<path d="M32 0.5C49.397 0.5 63.5 14.603 63.5 32C63.5 49.397 49.397 63.5 32 63.5C14.603 63.5 0.5 49.397 0.5 32C0.5 14.603 14.603 0.5 32 0.5Z" fill="white" stroke="#746A6A"/>
</mask>
<g mask="url(#mask0_234_5851)">
<path d="M32 64C49.6731 64 64 49.6731 64 32C64 14.3269 49.6731 0 32 0C14.3269 0 0 14.3269 0 32C0 49.6731 14.3269 64 32 64Z" fill="black"/>
<path d="M53.1585 56.007L24.5837 19.2H19.2V44.7892H23.507V24.67L49.7775 58.6115C50.9612 57.8195 52.0907 56.9494 53.1585 56.007Z" fill="url(#paint0_linear_234_5851)"/>
<path d="M40.8889 19.2H45.1557V44.7999H40.8889V19.2Z" fill="url(#paint1_linear_234_5851)"/>
</g>
</g>
<defs>
<linearGradient id="paint0_linear_234_5851" x1="1908.41" y1="2241.42" x2="3042.43" y2="3646.97" gradientUnits="userSpaceOnUse">
<stop stop-color="white"/>
<stop offset="1" stop-color="white" stop-opacity="0"/>
</linearGradient>
<linearGradient id="paint1_linear_234_5851" x1="254.226" y1="19.2" x2="247.007" y2="1899.19" gradientUnits="userSpaceOnUse">
<stop stop-color="white"/>
<stop offset="1" stop-color="white" stop-opacity="0"/>
</linearGradient>
<clipPath id="clip0_234_5851">
<rect width="64" height="64" fill="white"/>
</clipPath>
</defs>
</svg>
