<svg width="64" height="64" viewBox="0 0 64 64" fill="none" xmlns="http://www.w3.org/2000/svg">
<path d="M27.7998 39.4004V45.7998H36.2002V39.4004H59.7998V57.5996C59.7998 59.0316 59.2312 60.4053 58.2188 61.418C57.2061 62.4306 55.8324 62.9999 54.4004 63H9.59961C8.16758 62.9999 6.79385 62.4306 5.78125 61.418C4.7688 60.4053 4.2002 59.0316 4.2002 57.5996V39.4004H27.7998ZM25.5996 1H38.4004C39.8324 1.0001 41.2061 1.56943 42.2188 2.58203C43.2312 3.59469 43.7998 4.96841 43.7998 6.40039V10.5996H57.5996C59.0317 10.5996 60.4053 11.1691 61.418 12.1816C62.4307 13.1943 63 14.5678 63 16V34.2002H36.2002V27.7998H27.7998V34.2002H1V16C1 13.0323 3.43268 10.5996 6.40039 10.5996H20.2002V6.40039C20.2002 4.96841 20.7688 3.59469 21.7812 2.58203C22.7939 1.56943 24.1676 1.0001 25.5996 1ZM24.5996 10.5996H39.4004V5.40039H24.5996V10.5996Z" fill="#18105D" stroke="#B6B5C3" stroke-width="2"/>
</svg>
