<svg width="90" height="47" viewBox="0 0 90 47" fill="none" xmlns="http://www.w3.org/2000/svg">
<path d="M45.0001 46.8607C69.8514 46.8607 89.9975 36.3706 89.9975 23.4304C89.9975 10.4901 69.8514 0 45.0001 0C20.1487 0 0.00268555 10.4901 0.00268555 23.4304C0.00268555 36.3706 20.1487 46.8607 45.0001 46.8607Z" fill="url(#paint0_radial_200_5906)"/>
<path d="M44.9999 45.12C68.8805 45.12 88.2396 35.4092 88.2396 23.4304C88.2396 11.4515 68.8805 1.74072 44.9999 1.74072C21.1193 1.74072 1.76025 11.4515 1.76025 23.4304C1.76025 35.4092 21.1193 45.12 44.9999 45.12Z" fill="#6181B6"/>
<path d="M53.7535 30.463L55.8979 19.5311C56.39 17.0593 55.9682 15.2141 54.7026 14.0652C53.4722 12.9511 51.363 12.3941 48.2694 12.3941H44.5431L45.5977 6.963C45.6329 6.75411 45.5977 6.54522 45.4571 6.37114C45.3165 6.19707 45.1407 6.12744 44.9298 6.12744H39.7973C39.4457 6.12744 39.1645 6.37115 39.0942 6.68448L36.8091 18.2778C36.5982 16.9548 36.1061 15.8408 35.2624 14.9356C33.7507 13.2297 31.3954 12.3593 28.1964 12.3593H18.318C17.9665 12.3593 17.6853 12.603 17.615 12.9163L13.0097 36.4511C12.9746 36.66 13.0098 36.8689 13.1504 37.043C13.291 37.2171 13.4668 37.2867 13.6777 37.2867H18.8453C19.1969 37.2867 19.4781 37.043 19.5484 36.7297L20.6734 31.0548H24.5052C26.509 31.0548 28.2315 30.846 29.5322 30.4282C30.9032 29.9756 32.1336 29.2445 33.2234 28.2349C34.1023 27.4341 34.8405 26.5289 35.403 25.5541L34.489 30.2541C34.4538 30.463 34.489 30.6719 34.6296 30.846C34.7702 31.02 34.946 31.0897 35.1569 31.0897H40.2894C40.641 31.0897 40.9222 30.846 40.9925 30.5326L43.5236 17.6511H47.039C48.5507 17.6511 48.9725 17.9297 49.1131 18.0689C49.2186 18.1734 49.4295 18.5911 49.1834 19.8793L47.1445 30.2889C47.1093 30.4978 47.1445 30.7067 47.2851 30.8808C47.4257 31.0548 47.6015 31.1245 47.8124 31.1245H53.0855C53.4019 31.02 53.6832 30.7763 53.7535 30.463ZM29.9892 21.4111C29.6728 23.0474 29.0752 24.2311 28.1964 24.8926C27.3175 25.5541 25.8762 25.9023 23.9779 25.9023H21.6928L23.3451 17.4771H26.298C28.4776 17.4771 29.3565 17.9297 29.708 18.3126C30.165 18.8697 30.2705 19.9489 29.9892 21.4111ZM75.6897 14.9356C74.1781 13.2297 71.8227 12.3593 68.6237 12.3593H58.6751C58.3235 12.3593 58.0423 12.603 57.972 12.9163L53.3668 36.4163C53.3316 36.6252 53.3668 36.8341 53.5074 37.0082C53.648 37.1823 53.8238 37.2519 54.0347 37.2519H59.2024C59.5539 37.2519 59.8352 37.0082 59.9055 36.6949L61.0304 31.02H64.8622C66.866 31.02 68.5886 30.8111 69.8893 30.3934C71.2603 29.9408 72.4907 29.2097 73.5805 28.2C74.4945 27.3645 75.2679 26.4245 75.8303 25.4149C76.3928 24.4052 76.8146 23.2911 77.0607 22.0726C77.6583 19.0437 77.2013 16.6763 75.6897 14.9356ZM70.3111 21.4111C69.9947 23.0474 69.3971 24.2311 68.5182 24.8926C67.6394 25.5541 66.1981 25.9023 64.2997 25.9023H62.0147L63.667 17.4771H66.6199C68.7995 17.4771 69.6783 17.9297 70.0299 18.3126C70.522 18.8697 70.6275 19.9489 70.3111 21.4111Z" fill="white"/>
<path d="M26.2979 16.7808C28.2665 16.7808 29.5672 17.1289 30.2351 17.86C30.9031 18.5911 31.0437 19.8097 30.6921 21.5504C30.3406 23.3608 29.6375 24.6837 28.618 25.4497C27.5986 26.2156 26.0518 26.5985 23.9777 26.5985H20.849L22.7824 16.7808H26.2979ZM13.7126 36.5556H18.8803L20.1107 30.3237H24.5401C26.5088 30.3237 28.0907 30.1148 29.3563 29.6971C30.6218 29.2793 31.7468 28.6178 32.8014 27.643C33.6802 26.8423 34.3833 25.9719 34.9106 25.0319C35.4379 24.0919 35.8246 23.0474 36.0356 21.8985C36.598 19.1134 36.1762 16.9548 34.8052 15.3882C33.4342 13.8215 31.2546 13.0556 28.2665 13.0556H18.3178L13.7126 36.5556ZM39.8322 6.82373H44.9647L43.7343 13.0556H48.3044C51.187 13.0556 53.1557 13.543 54.2455 14.5526C55.3352 15.5622 55.6516 17.1637 55.2298 19.3919L53.0854 30.3237H47.8825L49.9215 19.9141C50.1676 18.7304 50.0621 17.9297 49.6754 17.5119C49.2887 17.0941 48.4099 16.8504 47.1091 16.8504H42.9961L40.3595 30.3237H35.227L39.8322 6.82373ZM66.6197 16.7808C68.5884 16.7808 69.8891 17.1289 70.557 17.86C71.2249 18.5911 71.3655 19.8097 71.014 21.5504C70.6625 23.3608 69.9594 24.6837 68.9399 25.4497C67.9204 26.2156 66.3736 26.5985 64.2996 26.5985H61.1708L63.1043 16.7808H66.6197ZM54.0345 36.5556H59.2022L60.4326 30.3237H64.862C66.8307 30.3237 68.4126 30.1148 69.6781 29.6971C70.9437 29.2793 72.0686 28.6178 73.1233 27.643C74.0021 26.8423 74.7052 25.9719 75.2325 25.0319C75.7598 24.0919 76.1465 23.0474 76.3574 21.8985C76.9199 19.1134 76.4981 16.9548 75.127 15.3882C73.756 13.8215 71.5765 13.0556 68.5884 13.0556H58.6397L54.0345 36.5556Z" fill="#000004"/>
<defs>
<radialGradient id="paint0_radial_200_5906" cx="0" cy="0" r="1" gradientUnits="userSpaceOnUse" gradientTransform="translate(27.0192 8.2398) scale(59.0926 58.5221)">
<stop stop-color="white"/>
<stop offset="0.5" stop-color="#4C6B97"/>
<stop offset="1" stop-color="#231F20"/>
</radialGradient>
</defs>
</svg>
