<svg width="63" height="64" viewBox="0 0 63 64" fill="none" xmlns="http://www.w3.org/2000/svg">
<path d="M61.8247 38.3239C61.4526 37.1969 60.4778 36.4119 59.2172 36.2235C58.6228 36.1348 57.9421 36.1726 57.1365 36.3387C55.7324 36.6284 54.6907 36.7387 53.9304 36.76C56.8 31.9152 59.1333 26.3903 60.4766 21.1896C62.6487 12.7801 61.488 8.94911 60.1316 7.21627C56.5421 2.6296 51.305 0.165598 44.9869 0.0902043C41.6165 0.0489922 38.6577 0.714447 37.1142 1.19299C35.6771 0.939416 34.1319 0.797841 32.5105 0.771659C29.4713 0.723174 26.7859 1.38572 24.4914 2.74742C23.2211 2.31784 21.1823 1.71226 18.8279 1.32584C13.2904 0.41675 8.82739 1.12511 5.5629 3.4313C1.60993 6.22354 -0.222552 11.0749 0.116357 17.8507C0.223993 20.002 1.42739 26.5474 3.32218 32.7549C4.41115 36.3229 5.57236 39.2858 6.77357 41.5622C8.47708 44.7901 10.2999 46.6909 12.3462 47.3736C13.4931 47.7557 15.577 48.0233 17.7687 46.1978C18.0465 46.5343 18.4172 46.8686 18.9091 47.1792C19.5338 47.5731 20.2977 47.8951 21.0606 48.0858C23.8099 48.7731 26.3852 48.6012 28.5823 47.6378C28.5959 48.0286 28.6063 48.402 28.615 48.7244C28.6296 49.2473 28.6441 49.76 28.6633 50.2395C28.7934 53.4817 29.0141 56.0027 29.6676 57.7666C29.7035 57.8635 29.7518 58.0114 29.8027 58.1683C30.1287 59.1666 30.6739 60.8378 32.0611 62.1467C33.4974 63.5026 35.2349 63.9183 36.8262 63.9183C37.6242 63.9183 38.3857 63.8136 39.0536 63.6706C41.4342 63.1603 44.1379 62.3831 46.0938 59.5981C47.943 56.9654 48.8419 53 49.0046 46.752C49.0256 46.5752 49.0453 46.4065 49.0638 46.2458L49.1025 45.9157L49.5382 45.954L49.6504 45.9615C52.0751 46.072 55.04 45.5578 56.8608 44.712C58.2996 44.0444 62.9103 41.6102 61.8247 38.3239Z" fill="black"/>
<path d="M57.6788 38.9628C50.4691 40.4501 49.9734 38.0091 49.9734 38.0091C57.5855 26.7139 60.7678 12.3762 58.0218 8.86707C50.53 -0.705056 37.5615 3.82197 37.345 3.93931L37.2754 3.95191C35.8509 3.65616 34.257 3.48016 32.4652 3.45082C29.2032 3.39749 26.7285 4.3061 24.8507 5.7301C24.8507 5.7301 1.71615 -3.80057 2.79227 17.7165C3.02112 22.294 9.35324 52.3524 16.9057 43.2734C19.6662 39.9534 22.3336 37.1463 22.3336 37.1463C23.6582 38.0263 25.2442 38.4753 26.9067 38.3141L27.0359 38.2045C26.9957 38.6166 27.0141 39.0198 27.0875 39.4971C25.1418 41.6709 25.7137 42.0525 21.8243 42.8533C17.8885 43.6644 20.2005 45.1083 21.7101 45.486C23.5402 45.9434 27.7738 46.5917 30.6345 42.5871L30.5205 43.044C31.2827 43.6547 31.818 47.0157 31.7283 50.0627C31.6386 53.1095 31.5787 55.2014 32.1792 56.8353C32.7802 58.4692 33.3787 62.1456 38.4919 61.0501C42.7641 60.1345 44.9782 57.7619 45.2863 53.804C45.5048 50.9905 45.9995 51.4065 46.0306 48.8908L46.4274 47.7C46.8849 43.886 46.5002 42.6554 49.1322 43.2278L49.7722 43.284C51.7091 43.372 54.2449 42.9723 55.7331 42.2806C58.9375 40.7936 60.8381 38.3105 57.6783 38.9628H57.6788Z" fill="#336791"/>
<path d="M26.205 19.7636C25.5553 19.6732 24.9669 19.7568 24.6692 19.9823C24.5019 20.1091 24.45 20.256 24.436 20.3571C24.3987 20.625 24.5863 20.9212 24.7017 21.0739C25.028 21.5064 25.5046 21.8036 25.9763 21.8691C26.0447 21.8786 26.1128 21.8833 26.1805 21.8831C26.9671 21.8831 27.6825 21.2705 27.7456 20.8184C27.8243 20.2521 27.0023 19.8744 26.205 19.7636ZM47.7283 19.7816C47.6663 19.3377 46.8765 19.2111 46.1269 19.3154C45.3783 19.4196 44.6525 19.7576 44.7131 20.2024C44.7616 20.5483 45.3863 21.1389 46.1257 21.1389C46.1882 21.1389 46.2513 21.1345 46.3148 21.1258C46.8083 21.0574 47.1705 20.744 47.3427 20.5634C47.6045 20.288 47.7562 19.9811 47.7283 19.7816Z" fill="white"/>
<path d="M60.0779 38.7939C59.803 37.9626 58.9181 37.6952 57.4481 37.9987C53.0832 38.8996 51.5201 38.2756 51.0069 37.8976C54.3996 32.7291 57.1906 26.4814 58.6963 20.6523C59.4095 17.8911 59.8035 15.3267 59.8357 13.2365C59.8714 10.9425 59.4806 9.25665 58.6748 8.22683C55.4258 4.07531 50.6573 1.8484 44.8852 1.78731C40.9169 1.74271 37.5642 2.75822 36.9143 3.0438C35.5455 2.70343 34.0534 2.49447 32.4289 2.4678C29.45 2.41956 26.875 3.13277 24.7431 4.58659C23.8171 4.24186 21.4238 3.42028 18.4971 2.94877C13.4372 2.13422 9.41633 2.75143 6.54699 4.78416C3.12324 7.20986 1.54263 11.5459 1.84881 17.6714C1.95184 19.7323 3.12614 26.0722 4.97924 32.1437C7.41851 40.135 10.0701 44.6588 12.86 45.5895C13.1865 45.6983 13.563 45.7745 13.9783 45.7745C14.996 45.7745 16.2437 45.3158 17.5419 43.7551C19.1253 41.8556 20.7633 40.0022 22.4537 38.1973C23.5504 38.7859 24.7552 39.1146 25.9875 39.1476C25.9901 39.1799 25.9929 39.212 25.996 39.244C25.7839 39.497 25.5762 39.7536 25.3729 40.0137C24.5191 41.0976 24.3414 41.3233 21.5931 41.8891C20.8112 42.0506 18.7349 42.4785 18.7043 43.934C18.6714 45.5243 21.1589 46.1922 21.4423 46.263C22.4299 46.5102 23.3814 46.6322 24.2888 46.6322C26.4956 46.6322 28.4377 45.9068 29.9897 44.5034C29.9419 50.1728 30.1783 55.7592 30.859 57.4613C31.4166 58.8547 32.7785 62.26 37.0806 62.2598C37.7118 62.2598 38.4066 62.1863 39.171 62.0225C43.6609 61.06 45.6108 59.0756 46.3649 54.7005C46.7686 52.3623 47.4612 46.7791 47.787 43.7842C48.4745 43.9987 49.3596 44.0969 50.3164 44.0966C52.3121 44.0966 54.6149 43.6726 56.059 43.0023C57.6813 42.2489 60.6088 40.4002 60.0779 38.7939ZM49.3855 18.5563C49.3708 19.4404 49.2491 20.2431 49.1201 21.0809C48.9812 21.982 48.8377 22.9136 48.8015 24.0445C48.7659 25.1451 48.9034 26.2894 49.0362 27.396C49.3048 29.6312 49.5804 31.9323 48.5135 34.2028C48.3366 33.8887 48.1787 33.5641 48.0408 33.231C47.9082 32.9095 47.6202 32.3931 47.2214 31.6785C45.6701 28.8964 42.0374 22.3815 43.8971 19.7231C44.451 18.9318 45.8568 18.1182 49.3855 18.5563ZM45.1082 3.57762C50.2801 3.6918 54.3712 5.62659 57.2677 9.32792C59.4893 12.167 57.043 25.085 49.9611 36.2295C49.8898 36.1389 49.8182 36.0487 49.7463 35.9587L49.6566 35.8467C51.4866 32.8244 51.1288 29.8341 50.8103 27.1829C50.6794 26.0949 50.5557 25.0673 50.5872 24.102C50.6197 23.0789 50.755 22.2014 50.8859 21.3529C51.0466 20.3073 51.2103 19.2254 51.1652 17.95C51.1989 17.8162 51.2124 17.6581 51.1948 17.4705C51.0796 16.2474 49.6832 12.5871 46.8372 9.2741C45.2803 7.46198 43.01 5.4341 39.9101 4.06634C41.2435 3.78998 43.0668 3.53228 45.1082 3.57762ZM16.1681 42.6128C14.7378 44.3325 13.7501 44.0028 13.4253 43.8947C11.3089 43.1888 8.85318 38.7156 6.68808 31.6222C4.81463 25.4845 3.71984 19.3126 3.63305 17.582C3.3596 12.1085 4.68639 8.29398 7.57681 6.24404C12.2808 2.90828 20.0146 4.90489 23.1223 5.9175C23.0777 5.96162 23.0311 6.00283 22.987 6.04768C17.8874 11.1977 18.0083 19.9968 18.0209 20.5347C18.0204 20.7422 18.0379 21.036 18.0617 21.4402C18.1494 22.9202 18.3128 25.6746 17.8764 28.7939C17.4711 31.6925 18.3647 34.5296 20.3276 36.5779C20.529 36.7877 20.7407 36.9874 20.962 37.1762C20.0883 38.1119 18.1894 40.1813 16.1681 42.6128ZM21.6175 35.3417C20.0355 33.6908 19.3169 31.3946 19.6459 29.0411C20.1065 25.7461 19.9366 22.8763 19.8452 21.3345C19.8323 21.1187 19.8209 20.9296 19.8144 20.7805C20.5594 20.1199 24.0117 18.2702 26.4738 18.8343C27.5972 19.0916 28.2818 19.8566 28.5664 21.1725C30.0394 27.9854 28.7613 30.8249 27.7344 33.1068C27.5228 33.5769 27.3228 34.0213 27.1521 34.4809L27.0197 34.8363C26.6847 35.7347 26.3729 36.5701 26.1797 37.3633C24.4978 37.3585 22.8617 36.6399 21.6175 35.3415M21.8757 44.5294C21.3846 44.4067 20.9429 44.1936 20.6837 44.0169C20.9002 43.9151 21.2854 43.7764 21.9535 43.6387C25.1868 42.9733 25.6861 42.5034 26.7766 41.1189C27.0265 40.8014 27.3099 40.4416 27.7024 40.0033L27.7029 40.0028C28.2874 39.3483 28.5548 39.4593 29.0396 39.6605C29.4326 39.823 29.8154 40.3156 29.9705 40.8576C30.044 41.1136 30.1264 41.5994 29.8566 41.9776C27.5788 45.167 24.2595 45.126 21.8757 44.5294ZM38.7967 60.2753C34.8413 61.1228 33.4408 59.1046 32.5179 56.7975C31.9223 55.308 31.6294 48.5914 31.8372 41.174C31.8398 41.0753 31.8258 40.98 31.7986 40.8903C31.7744 40.7132 31.7374 40.5381 31.6881 40.3662C31.3792 39.287 30.6265 38.3842 29.7235 38.0099C29.3647 37.8613 28.7063 37.5885 27.915 37.791C28.0837 37.0957 28.3763 36.3105 28.6937 35.4603L28.8268 35.1027C28.9766 34.6996 29.1647 34.2819 29.3635 33.8397C30.4381 31.4523 31.9099 28.1822 30.3126 20.7948C29.7143 18.0278 27.7162 16.6765 24.6874 16.9905C22.8716 17.1783 21.2103 17.9109 20.3817 18.3311C20.2035 18.4213 20.0406 18.5085 19.8883 18.5934C20.1196 15.8055 20.9933 10.5953 24.2617 7.29883C26.3196 5.22368 29.0602 4.19871 32.3994 4.25398C38.9788 4.36162 43.1979 7.7381 45.579 10.5519C47.6309 12.9764 48.7419 15.4188 49.1853 16.7362C45.8508 16.397 43.5829 17.0552 42.4333 18.6988C39.9322 22.2741 43.8015 29.2133 45.6612 32.5483C46.0023 33.1594 46.2966 33.6877 46.3892 33.9122C46.9948 35.3798 47.7788 36.3597 48.3511 37.0748C48.5266 37.294 48.6968 37.5066 48.8263 37.6923C47.8163 37.9834 46.0023 38.6562 46.1676 42.0188C46.0343 43.7061 45.0861 51.6057 44.6044 54.3968C43.9686 58.084 42.6117 59.4571 38.7967 60.2753ZM55.3068 41.382C54.274 41.8613 52.5458 42.2208 50.9041 42.2981C49.0908 42.3829 48.1676 42.0949 47.9504 41.9177C47.8486 39.8222 48.6284 39.6033 49.4539 39.3716C49.5836 39.3352 49.7101 39.2996 49.8323 39.2569C49.9081 39.3188 49.9915 39.3799 50.0825 39.4402C51.54 40.4021 54.1395 40.5059 57.8095 39.7483L57.8498 39.7403C57.3548 40.2031 56.5077 40.8242 55.3068 41.382Z" fill="white"/>
</svg>
