<svg width="64" height="64" viewBox="0 0 64 64" fill="none" xmlns="http://www.w3.org/2000/svg">
<path d="M15 0.5H49C57.0081 0.5 63.5 6.99187 63.5 15V49C63.5 57.0081 57.0081 63.5 49 63.5H15C6.99187 63.5 0.5 57.0081 0.5 49V15C0.5 6.99187 6.99187 0.5 15 0.5Z" fill="#F4F2ED"/>
<path d="M15 0.5H49C57.0081 0.5 63.5 6.99187 63.5 15V49C63.5 57.0081 57.0081 63.5 49 63.5H15C6.99187 63.5 0.5 57.0081 0.5 49V15C0.5 6.99187 6.99187 0.5 15 0.5Z" stroke="black"/>
<path d="M15 0.5H49C57.0081 0.5 63.5 6.99187 63.5 15V49C63.5 57.0081 57.0081 63.5 49 63.5H15C6.99187 63.5 0.5 57.0081 0.5 49V15C0.5 6.99187 6.99187 0.5 15 0.5Z" stroke="black" stroke-opacity="0.2"/>
<path d="M31.8197 7.25C19.1267 7.25 19.9193 12.7545 19.9193 12.7545L19.9335 18.457H32.0462V20.1695H15.1222C15.1222 20.1695 7 19.248 7 32.0552C7 44.8625 14.0892 44.4087 14.0892 44.4087H18.3202V38.4655C18.3202 38.4655 18.0922 31.3762 25.2965 31.3762H37.31C37.31 31.3762 44.0597 31.4853 44.0597 24.8528V13.8865C44.0597 13.8865 45.0845 7.25 31.8197 7.25ZM25.1408 11.0848C25.427 11.0845 25.7105 11.1407 25.975 11.2502C26.2395 11.3596 26.4798 11.5201 26.6822 11.7225C26.8846 11.9249 27.0451 12.1653 27.1546 12.4298C27.264 12.6943 27.3202 12.9778 27.32 13.264C27.3202 13.5502 27.264 13.8337 27.1545 14.0982C27.0451 14.3626 26.8845 14.6029 26.6821 14.8053C26.4797 15.0077 26.2394 15.1682 25.9749 15.2776C25.7104 15.387 25.427 15.4432 25.1408 15.443C24.8545 15.4432 24.5711 15.387 24.3067 15.2775C24.0422 15.1681 23.8019 15.0076 23.5995 14.8052C23.3971 14.6028 23.2366 14.3626 23.1272 14.0981C23.0178 13.8336 22.9616 13.5502 22.9618 13.264C22.9615 12.9778 23.0177 12.6943 23.1271 12.4298C23.2366 12.1653 23.3971 11.925 23.5994 11.7226C23.8018 11.5202 24.0421 11.3597 24.3066 11.2502C24.5711 11.1408 24.8545 11.0846 25.1408 11.0848Z" fill="url(#paint0_linear_200_5921)"/>
<path d="M32.1802 56.9896C44.8732 56.9896 44.0807 51.4853 44.0807 51.4853L44.0665 45.7826H31.9537V44.0704H48.8777C48.8777 44.0704 57 44.9916 57 32.1841C57 19.3766 49.9107 19.8309 49.9107 19.8309H45.6797V25.7741C45.6797 25.7741 45.9077 32.8634 38.7035 32.8634H26.69C26.69 32.8634 19.94 32.7541 19.94 39.3866V50.3531C19.94 50.3531 18.9152 56.9896 32.1802 56.9896ZM38.8592 53.1549C38.573 53.1551 38.2895 53.0989 38.0251 52.9895C37.7606 52.88 37.5203 52.7195 37.3178 52.5172C37.1154 52.3148 36.9549 52.0745 36.8455 51.81C36.736 51.5455 36.6798 51.2621 36.68 50.9759C36.6798 50.6896 36.736 50.4061 36.8454 50.1416C36.9548 49.8771 37.1154 49.6368 37.3178 49.4344C37.5202 49.232 37.7605 49.0715 38.025 48.962C38.2895 48.8526 38.573 48.7964 38.8592 48.7966C39.1455 48.7964 39.429 48.8526 39.6935 48.962C39.958 49.0715 40.1983 49.232 40.4007 49.4344C40.6031 49.6368 40.7636 49.8771 40.8731 50.1416C40.9825 50.4061 41.0387 50.6896 41.0385 50.9759C41.0387 51.2621 40.9824 51.5455 40.873 51.81C40.7635 52.0745 40.603 52.3148 40.4006 52.5172C40.1982 52.7195 39.9579 52.88 39.6934 52.9895C39.4289 53.0989 39.1455 53.1551 38.8592 53.1549Z" fill="url(#paint1_linear_200_5921)"/>
<defs>
<linearGradient id="paint0_linear_200_5921" x1="11.805" y1="11.724" x2="36.5832" y2="36.255" gradientUnits="userSpaceOnUse">
<stop stop-color="#387EB8"/>
<stop offset="1" stop-color="#366994"/>
</linearGradient>
<linearGradient id="paint1_linear_200_5921" x1="27.014" y1="27.4763" x2="53.623" y2="52.6306" gradientUnits="userSpaceOnUse">
<stop stop-color="#FFE052"/>
<stop offset="1" stop-color="#FFC331"/>
</linearGradient>
</defs>
</svg>
