<svg width="64" height="64" viewBox="0 0 64 64" fill="none" xmlns="http://www.w3.org/2000/svg">
<path d="M49 0H15C6.71573 0 0 6.71573 0 15V49C0 57.2843 6.71573 64 15 64H49C57.2843 64 64 57.2843 64 49V15C64 6.71573 57.2843 0 49 0Z" fill="#242938"/>
<path d="M32.0002 36.7377C34.5762 36.7377 36.6642 34.6494 36.6642 32.0737C36.6642 29.4979 34.5762 27.4097 32.0002 27.4097C29.4242 27.4097 27.3362 29.4979 27.3362 32.0737C27.3362 34.6494 29.4244 36.7377 32.0002 36.7377Z" fill="#00D8FF"/>
<path d="M32.0005 22.5908C38.2625 22.5908 44.0797 23.4893 48.466 24.9996C53.7507 26.8188 57 29.5766 57 32.0738C57 34.6761 53.5565 37.6058 47.8812 39.4861C43.5907 40.9076 37.9447 41.6496 32.0005 41.6496C25.906 41.6496 20.1347 40.9531 15.7957 39.4703C10.3062 37.5941 7 34.6266 7 32.0738C7 29.5968 10.1025 26.8603 15.313 25.0438C19.7155 23.5088 25.6763 22.5908 31.9995 22.5908H32.0005Z" stroke="#00D8FF" stroke-width="2.22775"/>
<path d="M23.7452 27.3595C26.8737 21.935 30.558 17.3445 34.0575 14.2995C38.2735 10.6302 42.286 9.19325 44.449 10.4405C46.7032 11.7405 47.521 16.1875 46.3147 22.043C45.4035 26.4697 43.225 31.7312 40.2552 36.8807C37.2105 42.1602 33.7242 46.8117 30.2725 49.8287C25.9047 53.6467 21.682 55.0285 19.4707 53.7532C17.325 52.5167 16.5045 48.4615 17.534 43.0402C18.4037 38.4595 20.5865 32.8372 23.7442 27.3595H23.7452Z" stroke="#00D8FF" stroke-width="2.22775"/>
<path d="M23.7529 36.8944C20.6157 31.4759 18.4797 25.9904 17.5882 21.4379C16.5149 15.9526 17.2737 11.7589 19.4349 10.5079C21.6872 9.2039 25.9479 10.7164 30.4184 14.6859C33.7984 17.6869 37.2692 22.2011 40.2474 27.3456C43.3009 32.6201 45.5894 37.9639 46.4797 42.4609C47.6062 48.1519 46.6944 52.5001 44.4852 53.7789C42.3417 55.0199 38.4189 53.7061 34.2362 50.1066C30.7022 47.0656 26.9212 42.3669 23.7529 36.8944Z" stroke="#00D8FF" stroke-width="2.22775"/>
</svg>
