<svg width="64" height="64" viewBox="0 0 64 64" fill="none" xmlns="http://www.w3.org/2000/svg">
<mask id="mask0_200_5938" style="mask-type:luminance" maskUnits="userSpaceOnUse" x="0" y="0" width="64" height="64">
<path d="M49 0H15C6.71573 0 0 6.71573 0 15V49C0 57.2843 6.71573 64 15 64H49C57.2843 64 64 57.2843 64 49V15C64 6.71573 57.2843 0 49 0Z" fill="white"/>
</mask>
<g mask="url(#mask0_200_5938)">
<path d="M49 0H15C6.71573 0 0 6.71573 0 15V49C0 57.2843 6.71573 64 15 64H49C57.2843 64 64 57.2843 64 49V15C64 6.71573 57.2843 0 49 0Z" fill="#59B943"/>
<path fill-rule="evenodd" clip-rule="evenodd" d="M58.444 -1.5H64V65.25H63.4835C63.5481 65.2503 63.6121 65.2378 63.6718 65.2132C63.7315 65.1886 63.7858 65.1525 63.8315 65.1069C63.8773 65.0613 63.9135 65.0071 63.9382 64.9475C63.9629 64.8878 63.9756 64.8238 63.9755 64.7592V8.434C64.0144 8.31933 64.0062 8.19389 63.9527 8.08527C63.8991 7.97664 63.8047 7.89373 63.69 7.85475C63.5753 7.81582 63.4498 7.82393 63.341 7.87729C63.2322 7.93065 63.149 8.02493 63.1095 8.1395L42.4405 31.286C42.3815 31.3497 42.3099 31.4005 42.2303 31.4353C42.1507 31.4701 42.0647 31.488 41.9779 31.488C41.891 31.488 41.8051 31.4701 41.7255 31.4353C41.6459 31.4005 41.5743 31.3497 41.5153 31.286L30.9643 20.4293C30.875 20.3179 30.8263 20.1795 30.8263 20.0368C30.8263 19.894 30.875 19.7556 30.9643 19.6443L34.4482 15.1875C34.5067 15.1064 34.5836 15.0403 34.6726 14.9948C34.7616 14.9492 34.8601 14.9255 34.9601 14.9255C35.0601 14.9255 35.1587 14.9492 35.2476 14.9948C35.3366 15.0403 35.4135 15.1064 35.472 15.1875L41.3775 21.7055C41.4367 21.7757 41.5106 21.8321 41.5939 21.8708C41.6772 21.9095 41.7679 21.9296 41.8597 21.9296C41.9516 21.9296 42.0423 21.9095 42.1256 21.8708C42.2089 21.8321 42.2828 21.7757 42.342 21.7055L58.7985 -0.79325C58.8443 -0.85975 58.8712 -0.93725 58.877 -1.01775C58.8824 -1.09823 58.8661 -1.17867 58.8299 -1.25075C58.7938 -1.32284 58.739 -1.38395 58.6712 -1.42775C58.6034 -1.47183 58.5249 -1.49679 58.444 -1.5ZM0.492 -1.5H0V-1.00925C0 -1.13925 0.05175 -1.26425 0.14425 -1.35625C0.2365 -1.44825 0.36175 -1.5 0.492 -1.5ZM0 64.7592V65.25H0.492C0.361626 65.25 0.236571 65.1983 0.14425 65.1062C0.0985554 65.0607 0.0622917 65.0067 0.0375381 64.9471C0.0127846 64.8876 2.8051e-05 64.8237 0 64.7592ZM42.242 40.76C41.0212 40.7226 39.8306 41.1437 38.9048 41.9403C37.982 42.7337 37.3928 43.8463 37.255 45.0555C37.2491 45.0789 37.2487 45.1034 37.2537 45.127C37.2588 45.1507 37.2692 45.1728 37.2842 45.1917C37.2995 45.2106 37.319 45.2257 37.341 45.2358C37.3631 45.2459 37.3872 45.2508 37.4115 45.25H47.0923C47.1145 45.25 47.1365 45.2453 47.1569 45.2364C47.1772 45.2274 47.1955 45.2142 47.2105 45.1978C47.2254 45.1813 47.2366 45.1618 47.2432 45.1406C47.2498 45.1194 47.2517 45.097 47.2487 45.075C47.1526 43.8438 46.5733 42.7007 45.6372 41.8952C44.6978 41.0868 43.4787 40.6792 42.242 40.76ZM6.53525 54.0008C9.64873 56.7275 13.7011 58.1357 17.8345 57.9272H17.8145C25.2753 57.9272 28.8775 54.1185 28.8775 49.1317C28.8775 42.8775 23.0578 41.4843 18.4675 40.3853C15.479 39.6695 13.0118 39.079 13.0118 37.3525C13.0118 35.7033 14.429 34.5843 16.9485 34.5843C19.6904 34.5583 22.3583 35.473 24.5075 37.1758C24.571 37.23 24.645 37.2707 24.7248 37.2952C24.8047 37.3197 24.8887 37.3276 24.9718 37.3182C25.0547 37.309 25.1349 37.2828 25.2074 37.2414C25.2798 37.2 25.3431 37.1442 25.3932 37.0775L27.8145 33.7205C27.9239 33.6072 27.9851 33.4559 27.9851 33.2984C27.9851 33.1409 27.9239 32.9895 27.8145 32.8763C24.8997 30.5147 21.229 29.2874 17.48 29.421C10.9447 29.421 7.00775 33.2298 7.00775 37.804C7.00775 43.9545 12.6075 45.2807 17.1618 46.3592C20.283 47.0985 22.913 47.7212 22.913 49.7012C22.913 51.2717 21.3383 52.7637 18.11 52.7637C15.0464 52.7735 12.0926 51.6232 9.8425 49.544C9.73778 49.4801 9.61623 49.4493 9.49372 49.4555C9.37121 49.4618 9.25343 49.5048 9.15575 49.579C9.09115 49.6284 9.0368 49.6898 8.99575 49.76L6.53525 53.1958C6.43701 53.3068 6.38278 53.45 6.38278 53.5983C6.38278 53.7465 6.43701 53.8897 6.53525 54.0008ZM52.4827 48.5798C52.5095 48.5118 52.5218 48.439 52.519 48.3662L52.4992 47.738C52.4992 41.0432 48.3458 36.469 42.2238 36.469C40.8112 36.4444 39.4084 36.7058 38.0995 37.2375C36.7915 37.7686 35.6048 38.5591 34.6107 39.5615C33.6176 40.5629 32.8379 41.7553 32.319 43.0667C31.8006 44.3773 31.5539 45.7795 31.594 47.1883C31.5372 48.6316 31.7831 50.0709 32.316 51.4135C32.8499 52.7568 33.6586 53.9737 34.6903 54.9863C35.7233 55.9995 36.9564 56.786 38.3107 57.2955C39.6661 57.8052 41.1127 58.027 42.5585 57.9468C45.452 58.0201 48.2889 57.1368 50.6292 55.4338C50.7356 55.349 50.8066 55.2277 50.8284 55.0934C50.8502 54.9592 50.8213 54.8216 50.7472 54.7075L48.9757 52.1355C48.9138 52.0406 48.8232 51.9678 48.7171 51.928C48.611 51.8881 48.4949 51.8831 48.3857 51.9137C48.3132 51.934 48.246 51.9695 48.1883 52.0177C46.7092 53.055 44.9551 53.6291 43.149 53.667C41.7727 53.7805 40.4035 53.3761 39.3097 52.533C38.2176 51.6912 37.4804 50.4707 37.2435 49.1123C37.2407 49.089 37.2426 49.0654 37.2491 49.0429C37.2556 49.0204 37.2665 48.9994 37.2812 48.9813C37.2958 48.9629 37.3139 48.9477 37.3345 48.9365C37.3551 48.9253 37.3777 48.9183 37.401 48.916H51.9678C52.041 48.9188 52.1137 48.9062 52.182 48.8797C52.2501 48.8532 52.312 48.8128 52.3637 48.7612C52.4155 48.7096 52.456 48.6478 52.4827 48.5798Z" fill="white"/>
</g>
</svg>
