<svg width="64" height="64" viewBox="0 0 64 64" fill="none" xmlns="http://www.w3.org/2000/svg">
<path d="M49 0H15C6.71573 0 0 6.71573 0 15V49C0 57.2843 6.71573 64 15 64H49C57.2843 64 64 57.2843 64 49V15C64 6.71573 57.2843 0 49 0Z" fill="#007ACC"/>
<path d="M14.1528 32.2123L14.1326 34.8333H22.4626V58.5031H28.3548V34.8333H36.6848V32.2631C36.6848 30.8408 36.6546 29.6523 36.6138 29.6218C36.5833 29.5813 31.5141 29.5608 25.3681 29.5711L14.1833 29.6016L14.1528 32.2123ZM51.6418 29.5271C53.2671 29.9336 54.5066 30.6548 55.6443 31.8331C56.2336 32.4631 57.1071 33.6111 57.1783 33.8853C57.1986 33.9666 54.4151 35.8358 52.7288 36.8821C52.6678 36.9228 52.4238 36.6586 52.1496 36.2523C51.3268 35.0536 50.4633 34.5353 49.1426 34.4441C47.2023 34.3118 45.9528 35.3278 45.9631 37.0243C45.9631 37.5221 46.0341 37.8166 46.2373 38.2231C46.6638 39.1068 47.4563 39.6351 49.9453 40.7118C54.5268 42.6828 56.4873 43.9831 57.7066 45.8318C59.0678 47.8941 59.3726 51.1856 58.4481 53.6338C57.4323 56.2953 54.9128 58.1036 51.3673 58.7031C50.2703 58.8961 47.6696 58.8656 46.4913 58.6523C43.9211 58.1951 41.4831 56.9253 39.9796 55.2593C39.3903 54.6091 38.2423 52.9126 38.3136 52.7906C38.3438 52.7501 38.6081 52.5876 38.9026 52.4148C39.1871 52.2523 40.2641 51.6326 41.2798 51.0433L43.1186 49.9766L43.5046 50.5456C44.0431 51.3683 45.2213 52.4961 45.9326 52.8718C47.9743 53.9488 50.7783 53.7963 52.1598 52.5571C52.7491 52.0186 52.9928 51.4598 52.9928 50.6371C52.9928 49.8953 52.9013 49.5703 52.5153 49.0116C52.0176 48.3006 51.0018 47.7011 48.1166 46.4516C44.8151 45.0293 43.3928 44.1456 42.0926 42.7436C41.3408 41.9311 40.6296 40.6306 40.3351 39.5436C40.0913 38.6396 40.0303 36.3741 40.2233 35.4598C40.9038 32.2701 43.3116 30.0453 46.7858 29.3848C47.9136 29.1716 50.5343 29.2528 51.6418 29.5271Z" fill="white"/>
</svg>
