<svg width="64" height="64" viewBox="0 0 64 64" fill="none" xmlns="http://www.w3.org/2000/svg">
<path d="M59.768 7.90465L33.484 54.9046C33.3606 55.1257 33.1806 55.31 32.9625 55.4386C32.7445 55.5672 32.4961 55.6355 32.2429 55.6365C31.9898 55.6375 31.7409 55.5712 31.5218 55.4444C31.3027 55.3175 31.1212 55.1347 30.996 54.9146L4.19202 7.90865C4.05726 7.67279 3.99257 7.4034 4.00553 7.13207C4.0185 6.86074 4.10858 6.59873 4.26522 6.3768C4.42185 6.15487 4.63853 5.98222 4.88984 5.8791C5.14115 5.77599 5.41665 5.74669 5.68402 5.79465L31.996 10.4986C32.1633 10.5294 32.3348 10.5294 32.502 10.4986L58.264 5.80265C58.5304 5.75398 58.805 5.78203 59.056 5.88353C59.3071 5.98504 59.524 6.1558 59.6817 6.37592C59.8393 6.59604 59.9311 6.85644 59.9464 7.12675C59.9617 7.39707 59.8998 7.66816 59.768 7.90465Z" fill="url(#paint0_linear_234_5859)"/>
<path d="M44.5279 4.01409L25.0799 7.82409C24.9247 7.85544 24.7841 7.9371 24.68 8.05641C24.5759 8.17573 24.514 8.32604 24.5039 8.48409L23.3079 28.6921C23.3013 28.8029 23.3207 28.9138 23.3644 29.0159C23.4082 29.118 23.4751 29.2084 23.56 29.2801C23.6449 29.3517 23.7452 29.4026 23.8532 29.4286C23.9612 29.4547 24.0737 29.4552 24.1819 29.4301L29.5959 28.1801C29.7125 28.1531 29.8341 28.1559 29.9493 28.1883C30.0646 28.2206 30.1699 28.2813 30.2555 28.365C30.3412 28.4486 30.4044 28.5525 30.4394 28.6669C30.4744 28.7814 30.4801 28.9029 30.4559 29.0201L28.8479 36.8981C28.8231 37.0194 28.8302 37.145 28.8686 37.2627C28.907 37.3804 28.9754 37.4861 29.067 37.5694C29.1585 37.6527 29.2702 37.7107 29.391 37.7379C29.5117 37.765 29.6375 37.7602 29.7559 37.7241L33.0999 36.7081C33.2185 36.6718 33.3445 36.667 33.4655 36.6942C33.5865 36.7214 33.6983 36.7797 33.7899 36.8633C33.8816 36.9468 33.9499 37.0528 33.9881 37.1708C34.0263 37.2888 34.0331 37.4147 34.0079 37.5361L31.4499 49.9101C31.2899 50.6841 32.3199 51.1061 32.7499 50.4441L33.0359 50.0001L48.8859 18.3701C48.9454 18.2509 48.9704 18.1175 48.958 17.9848C48.9456 17.8522 48.8964 17.7257 48.8159 17.6196C48.7353 17.5135 48.6267 17.432 48.5023 17.3844C48.3779 17.3367 48.2427 17.3249 48.1119 17.3501L42.5379 18.4241C42.4179 18.4471 42.2941 18.4388 42.1781 18.4003C42.0622 18.3617 41.9582 18.294 41.8759 18.2037C41.7936 18.1134 41.7359 18.0035 41.7082 17.8845C41.6806 17.7655 41.6839 17.6414 41.7179 17.5241L45.3539 4.91209C45.3882 4.79437 45.3915 4.66982 45.3637 4.55042C45.3359 4.43103 45.2778 4.32081 45.195 4.23039C45.1122 4.13996 45.0075 4.07238 44.891 4.03414C44.7745 3.99591 44.6502 3.98831 44.5299 4.01209" fill="url(#paint1_linear_234_5859)"/>
<defs>
<linearGradient id="paint0_linear_234_5859" x1="3.53706" y1="4.11437" x2="36.2474" y2="48.5376" gradientUnits="userSpaceOnUse">
<stop stop-color="#41D1FF"/>
<stop offset="1" stop-color="#BD34FE"/>
</linearGradient>
<linearGradient id="paint1_linear_234_5859" x1="30.4839" y1="5.04765" x2="36.401" y2="45.6386" gradientUnits="userSpaceOnUse">
<stop stop-color="#FFEA83"/>
<stop offset="0.083" stop-color="#FFDD35"/>
<stop offset="1" stop-color="#FFA800"/>
</linearGradient>
</defs>
</svg>
